  0
SECTION
  2
BLOCKS
  0
ENDSEC
  0
SECTION
  2
ENTITIES
  0
LINE
  8
0
 10
2.43594
 20
-12.7697
 11
4.01721
 21
-12.3637
  0
LINE
  8
0
 10
4.01721
 20
-12.3637
 11
5.53513
 21
-11.7627
  0
LINE
  8
0
 10
5.53513
 20
-11.7627
 11
6.96574
 21
-10.9763
  0
LINE
  8
0
 10
6.96574
 20
-10.9763
 11
8.2865
 21
-10.0167
  0
LINE
  8
0
 10
8.2865
 20
-10.0167
 11
9.47658
 21
-8.89911
  0
LINE
  8
0
 10
9.47658
 20
-8.89911
 11
10.5172
 21
-7.6412
  0
LINE
  8
0
 10
10.5172
 20
-7.6412
 11
11.392
 21
-6.26279
  0
LINE
  8
0
 10
11.392
 20
-6.26279
 11
12.0871
 21
-4.78561
  0
LINE
  8
0
 10
12.0871
 20
-4.78561
 11
12.5916
 21
-3.23296
  0
LINE
  8
0
 10
12.5916
 20
-3.23296
 11
12.8975
 21
-1.62932
  0
LINE
  8
0
 10
12.8975
 20
-1.62932
 11
13
 21
0
  0
LINE
  8
0
 10
13
 20
0
 11
12.8975
 21
1.62932
  0
LINE
  8
0
 10
12.8975
 20
1.62932
 11
12.5916
 21
3.23296
  0
LINE
  8
0
 10
12.5916
 20
3.23296
 11
12.0871
 21
4.78561
  0
LINE
  8
0
 10
12.0871
 20
4.78561
 11
11.392
 21
6.26279
  0
LINE
  8
0
 10
11.392
 20
6.26279
 11
10.5172
 21
7.6412
  0
LINE
  8
0
 10
10.5172
 20
7.6412
 11
9.47658
 21
8.89911
  0
LINE
  8
0
 10
9.47658
 20
8.89911
 11
8.2865
 21
10.0167
  0
LINE
  8
0
 10
8.2865
 20
10.0167
 11
6.96574
 21
10.9763
  0
LINE
  8
0
 10
6.96574
 20
10.9763
 11
5.53513
 21
11.7627
  0
LINE
  8
0
 10
5.53513
 20
11.7627
 11
4.93588
 21
12
  0
LINE
  8
0
 10
4.93588
 20
12
 11
5.53513
 21
12.2373
  0
LINE
  8
0
 10
5.53513
 20
12.2373
 11
6.96574
 21
13.0237
  0
LINE
  8
0
 10
6.96574
 20
13.0237
 11
8.2865
 21
13.9833
  0
LINE
  8
0
 10
8.2865
 20
13.9833
 11
9.47658
 21
15.1009
  0
LINE
  8
0
 10
9.47658
 20
15.1009
 11
10.5172
 21
16.3588
  0
LINE
  8
0
 10
10.5172
 20
16.3588
 11
11.392
 21
17.7372
  0
LINE
  8
0
 10
11.392
 20
17.7372
 11
12.0871
 21
19.2144
  0
LINE
  8
0
 10
12.0871
 20
19.2144
 11
12.5916
 21
20.767
  0
LINE
  8
0
 10
12.5916
 20
20.767
 11
12.8975
 21
22.3707
  0
LINE
  8
0
 10
12.8975
 20
22.3707
 11
13
 21
24
  0
LINE
  8
0
 10
13
 20
24
 11
12.8975
 21
25.6293
  0
LINE
  8
0
 10
12.8975
 20
25.6293
 11
12.5916
 21
27.233
  0
LINE
  8
0
 10
12.5916
 20
27.233
 11
12.0871
 21
28.7856
  0
LINE
  8
0
 10
12.0871
 20
28.7856
 11
11.392
 21
30.2628
  0
LINE
  8
0
 10
11.392
 20
30.2628
 11
10.5172
 21
31.6412
  0
LINE
  8
0
 10
10.5172
 20
31.6412
 11
9.47658
 21
32.8991
  0
LINE
  8
0
 10
9.47658
 20
32.8991
 11
8.2865
 21
34.0167
  0
LINE
  8
0
 10
8.2865
 20
34.0167
 11
6.96574
 21
34.9763
  0
LINE
  8
0
 10
6.96574
 20
34.9763
 11
5.53513
 21
35.7627
  0
LINE
  8
0
 10
5.53513
 20
35.7627
 11
4.01721
 21
36.3637
  0
LINE
  8
0
 10
4.01721
 20
36.3637
 11
2.43594
 21
36.7697
  0
LINE
  8
0
 10
2.43594
 20
36.7697
 11
0.816269
 21
36.9743
  0
LINE
  8
0
 10
0.816269
 20
36.9743
 11
-0.816269
 21
36.9743
  0
LINE
  8
0
 10
-0.816269
 20
36.9743
 11
-2.43594
 21
36.7697
  0
LINE
  8
0
 10
-2.43594
 20
36.7697
 11
-4.01721
 21
36.3637
  0
LINE
  8
0
 10
-4.01721
 20
36.3637
 11
-5.53513
 21
35.7627
  0
LINE
  8
0
 10
-5.53513
 20
35.7627
 11
-6.96574
 21
34.9763
  0
LINE
  8
0
 10
-6.96574
 20
34.9763
 11
-8.2865
 21
34.0167
  0
LINE
  8
0
 10
-8.2865
 20
34.0167
 11
-9.47658
 21
32.8991
  0
LINE
  8
0
 10
-9.47658
 20
32.8991
 11
-10.5172
 21
31.6412
  0
LINE
  8
0
 10
-10.5172
 20
31.6412
 11
-11.392
 21
30.2628
  0
LINE
  8
0
 10
-11.392
 20
30.2628
 11
-12.0871
 21
28.7856
  0
LINE
  8
0
 10
-12.0871
 20
28.7856
 11
-12.5916
 21
27.233
  0
LINE
  8
0
 10
-12.5916
 20
27.233
 11
-12.8975
 21
25.6293
  0
LINE
  8
0
 10
-12.8975
 20
25.6293
 11
-13
 21
24
  0
LINE
  8
0
 10
-13
 20
24
 11
-12.8975
 21
22.3707
  0
LINE
  8
0
 10
-12.8975
 20
22.3707
 11
-12.5916
 21
20.767
  0
LINE
  8
0
 10
-12.5916
 20
20.767
 11
-12.0871
 21
19.2144
  0
LINE
  8
0
 10
-12.0871
 20
19.2144
 11
-11.392
 21
17.7372
  0
LINE
  8
0
 10
-11.392
 20
17.7372
 11
-10.5172
 21
16.3588
  0
LINE
  8
0
 10
-10.5172
 20
16.3588
 11
-9.47658
 21
15.1009
  0
LINE
  8
0
 10
-9.47658
 20
15.1009
 11
-8.2865
 21
13.9833
  0
LINE
  8
0
 10
-8.2865
 20
13.9833
 11
-6.96574
 21
13.0237
  0
LINE
  8
0
 10
-6.96574
 20
13.0237
 11
-5.53513
 21
12.2373
  0
LINE
  8
0
 10
-5.53513
 20
12.2373
 11
-4.93588
 21
12
  0
LINE
  8
0
 10
-4.93588
 20
12
 11
-5.53513
 21
11.7627
  0
LINE
  8
0
 10
-5.53513
 20
11.7627
 11
-6.96574
 21
10.9763
  0
LINE
  8
0
 10
-6.96574
 20
10.9763
 11
-8.2865
 21
10.0167
  0
LINE
  8
0
 10
-8.2865
 20
10.0167
 11
-9.47658
 21
8.89911
  0
LINE
  8
0
 10
-9.47658
 20
8.89911
 11
-10.5172
 21
7.6412
  0
LINE
  8
0
 10
-10.5172
 20
7.6412
 11
-11.392
 21
6.26279
  0
LINE
  8
0
 10
-11.392
 20
6.26279
 11
-12.0871
 21
4.78561
  0
LINE
  8
0
 10
-12.0871
 20
4.78561
 11
-12.5916
 21
3.23296
  0
LINE
  8
0
 10
-12.5916
 20
3.23296
 11
-12.8975
 21
1.62932
  0
LINE
  8
0
 10
-12.8975
 20
1.62932
 11
-13
 21
0
  0
LINE
  8
0
 10
-13
 20
0
 11
-12.8975
 21
-1.62932
  0
LINE
  8
0
 10
-12.8975
 20
-1.62932
 11
-12.5916
 21
-3.23296
  0
LINE
  8
0
 10
-12.5916
 20
-3.23296
 11
-12.0871
 21
-4.78561
  0
LINE
  8
0
 10
-12.0871
 20
-4.78561
 11
-11.392
 21
-6.26279
  0
LINE
  8
0
 10
-11.392
 20
-6.26279
 11
-10.5172
 21
-7.6412
  0
LINE
  8
0
 10
-10.5172
 20
-7.6412
 11
-9.47658
 21
-8.89911
  0
LINE
  8
0
 10
-9.47658
 20
-8.89911
 11
-8.2865
 21
-10.0167
  0
LINE
  8
0
 10
-8.2865
 20
-10.0167
 11
-6.96574
 21
-10.9763
  0
LINE
  8
0
 10
-6.96574
 20
-10.9763
 11
-5.53513
 21
-11.7627
  0
LINE
  8
0
 10
-5.53513
 20
-11.7627
 11
-4.01721
 21
-12.3637
  0
LINE
  8
0
 10
-4.01721
 20
-12.3637
 11
-2.43594
 21
-12.7697
  0
LINE
  8
0
 10
-2.43594
 20
-12.7697
 11
-0.816269
 21
-12.9743
  0
LINE
  8
0
 10
-0.816269
 20
-12.9743
 11
0.816269
 21
-12.9743
  0
LINE
  8
0
 10
0.816269
 20
-12.9743
 11
2.43594
 21
-12.7697
  0
LINE
  8
0
 10
-0.25116
 20
20.0079
 11
-0.749512
 21
20.0709
  0
LINE
  8
0
 10
-0.749512
 20
20.0709
 11
-1.23605
 21
20.1958
  0
LINE
  8
0
 10
-1.23605
 20
20.1958
 11
-1.70311
 21
20.3807
  0
LINE
  8
0
 10
-1.70311
 20
20.3807
 11
-2.1433
 21
20.6227
  0
LINE
  8
0
 10
-2.1433
 20
20.6227
 11
-2.54968
 21
20.918
  0
LINE
  8
0
 10
-2.54968
 20
20.918
 11
-2.91586
 21
21.2618
  0
LINE
  8
0
 10
-2.91586
 20
21.2618
 11
-3.23605
 21
21.6489
  0
LINE
  8
0
 10
-3.23605
 20
21.6489
 11
-3.50522
 21
22.073
  0
LINE
  8
0
 10
-3.50522
 20
22.073
 11
-3.7191
 21
22.5275
  0
LINE
  8
0
 10
-3.7191
 20
22.5275
 11
-3.87433
 21
23.0052
  0
LINE
  8
0
 10
-3.87433
 20
23.0052
 11
-3.96844
 21
23.4987
  0
LINE
  8
0
 10
-3.96844
 20
23.4987
 11
-4
 21
24
  0
LINE
  8
0
 10
-4
 20
24
 11
-3.96844
 21
24.5013
  0
LINE
  8
0
 10
-3.96844
 20
24.5013
 11
-3.87433
 21
24.9948
  0
LINE
  8
0
 10
-3.87433
 20
24.9948
 11
-3.7191
 21
25.4725
  0
LINE
  8
0
 10
-3.7191
 20
25.4725
 11
-3.50522
 21
25.927
  0
LINE
  8
0
 10
-3.50522
 20
25.927
 11
-3.23605
 21
26.3511
  0
LINE
  8
0
 10
-3.23605
 20
26.3511
 11
-2.91586
 21
26.7382
  0
LINE
  8
0
 10
-2.91586
 20
26.7382
 11
-2.54968
 21
27.082
  0
LINE
  8
0
 10
-2.54968
 20
27.082
 11
-2.1433
 21
27.3773
  0
LINE
  8
0
 10
-2.1433
 20
27.3773
 11
-1.70311
 21
27.6193
  0
LINE
  8
0
 10
-1.70311
 20
27.6193
 11
-1.23605
 21
27.8042
  0
LINE
  8
0
 10
-1.23605
 20
27.8042
 11
-0.749512
 21
27.9291
  0
LINE
  8
0
 10
-0.749512
 20
27.9291
 11
-0.25116
 21
27.9921
  0
LINE
  8
0
 10
-0.25116
 20
27.9921
 11
0.25116
 21
27.9921
  0
LINE
  8
0
 10
0.25116
 20
27.9921
 11
0.749512
 21
27.9291
  0
LINE
  8
0
 10
0.749512
 20
27.9291
 11
1.23605
 21
27.8042
  0
LINE
  8
0
 10
1.23605
 20
27.8042
 11
1.70311
 21
27.6193
  0
LINE
  8
0
 10
1.70311
 20
27.6193
 11
2.1433
 21
27.3773
  0
LINE
  8
0
 10
2.1433
 20
27.3773
 11
2.54968
 21
27.082
  0
LINE
  8
0
 10
2.54968
 20
27.082
 11
2.91586
 21
26.7382
  0
LINE
  8
0
 10
2.91586
 20
26.7382
 11
3.23605
 21
26.3511
  0
LINE
  8
0
 10
3.23605
 20
26.3511
 11
3.50522
 21
25.927
  0
LINE
  8
0
 10
3.50522
 20
25.927
 11
3.7191
 21
25.4725
  0
LINE
  8
0
 10
3.7191
 20
25.4725
 11
3.87433
 21
24.9948
  0
LINE
  8
0
 10
3.87433
 20
24.9948
 11
3.96844
 21
24.5013
  0
LINE
  8
0
 10
3.96844
 20
24.5013
 11
4
 21
24
  0
LINE
  8
0
 10
4
 20
24
 11
3.96844
 21
23.4987
  0
LINE
  8
0
 10
3.96844
 20
23.4987
 11
3.87433
 21
23.0052
  0
LINE
  8
0
 10
3.87433
 20
23.0052
 11
3.7191
 21
22.5275
  0
LINE
  8
0
 10
3.7191
 20
22.5275
 11
3.50522
 21
22.073
  0
LINE
  8
0
 10
3.50522
 20
22.073
 11
3.23605
 21
21.6489
  0
LINE
  8
0
 10
3.23605
 20
21.6489
 11
2.91586
 21
21.2618
  0
LINE
  8
0
 10
2.91586
 20
21.2618
 11
2.54968
 21
20.918
  0
LINE
  8
0
 10
2.54968
 20
20.918
 11
2.1433
 21
20.6227
  0
LINE
  8
0
 10
2.1433
 20
20.6227
 11
1.70311
 21
20.3807
  0
LINE
  8
0
 10
1.70311
 20
20.3807
 11
1.23605
 21
20.1958
  0
LINE
  8
0
 10
1.23605
 20
20.1958
 11
0.749512
 21
20.0709
  0
LINE
  8
0
 10
0.749512
 20
20.0709
 11
0.25116
 21
20.0079
  0
LINE
  8
0
 10
0.25116
 20
20.0079
 11
-0.25116
 21
20.0079
  0
LINE
  8
0
 10
-0.25116
 20
-3.9921
 11
-0.749512
 21
-3.92914
  0
LINE
  8
0
 10
-0.749512
 20
-3.92914
 11
-1.23605
 21
-3.80421
  0
LINE
  8
0
 10
-1.23605
 20
-3.80421
 11
-1.70311
 21
-3.61929
  0
LINE
  8
0
 10
-1.70311
 20
-3.61929
 11
-2.1433
 21
-3.3773
  0
LINE
  8
0
 10
-2.1433
 20
-3.3773
 11
-2.54968
 21
-3.08205
  0
LINE
  8
0
 10
-2.54968
 20
-3.08205
 11
-2.91586
 21
-2.73817
  0
LINE
  8
0
 10
-2.91586
 20
-2.73817
 11
-3.23605
 21
-2.35114
  0
LINE
  8
0
 10
-3.23605
 20
-2.35114
 11
-3.50522
 21
-1.927
  0
LINE
  8
0
 10
-3.50522
 20
-1.927
 11
-3.7191
 21
-1.47249
  0
LINE
  8
0
 10
-3.7191
 20
-1.47249
 11
-3.87433
 21
-0.994751
  0
LINE
  8
0
 10
-3.87433
 20
-0.994751
 11
-3.96844
 21
-0.501328
  0
LINE
  8
0
 10
-3.96844
 20
-0.501328
 11
-4
 21
0
  0
LINE
  8
0
 10
-4
 20
0
 11
-3.96844
 21
0.501328
  0
LINE
  8
0
 10
-3.96844
 20
0.501328
 11
-3.87433
 21
0.994751
  0
LINE
  8
0
 10
-3.87433
 20
0.994751
 11
-3.7191
 21
1.47249
  0
LINE
  8
0
 10
-3.7191
 20
1.47249
 11
-3.50522
 21
1.927
  0
LINE
  8
0
 10
-3.50522
 20
1.927
 11
-3.23605
 21
2.35114
  0
LINE
  8
0
 10
-3.23605
 20
2.35114
 11
-2.91586
 21
2.73817
  0
LINE
  8
0
 10
-2.91586
 20
2.73817
 11
-2.54968
 21
3.08205
  0
LINE
  8
0
 10
-2.54968
 20
3.08205
 11
-2.1433
 21
3.3773
  0
LINE
  8
0
 10
-2.1433
 20
3.3773
 11
-1.70311
 21
3.61929
  0
LINE
  8
0
 10
-1.70311
 20
3.61929
 11
-1.23605
 21
3.80421
  0
LINE
  8
0
 10
-1.23605
 20
3.80421
 11
-0.749512
 21
3.92914
  0
LINE
  8
0
 10
-0.749512
 20
3.92914
 11
-0.25116
 21
3.9921
  0
LINE
  8
0
 10
-0.25116
 20
3.9921
 11
0.25116
 21
3.9921
  0
LINE
  8
0
 10
0.25116
 20
3.9921
 11
0.749512
 21
3.92914
  0
LINE
  8
0
 10
0.749512
 20
3.92914
 11
1.23605
 21
3.80421
  0
LINE
  8
0
 10
1.23605
 20
3.80421
 11
1.70311
 21
3.61929
  0
LINE
  8
0
 10
1.70311
 20
3.61929
 11
2.1433
 21
3.3773
  0
LINE
  8
0
 10
2.1433
 20
3.3773
 11
2.54968
 21
3.08205
  0
LINE
  8
0
 10
2.54968
 20
3.08205
 11
2.91586
 21
2.73817
  0
LINE
  8
0
 10
2.91586
 20
2.73817
 11
3.23605
 21
2.35114
  0
LINE
  8
0
 10
3.23605
 20
2.35114
 11
3.50522
 21
1.927
  0
LINE
  8
0
 10
3.50522
 20
1.927
 11
3.7191
 21
1.47249
  0
LINE
  8
0
 10
3.7191
 20
1.47249
 11
3.87433
 21
0.994751
  0
LINE
  8
0
 10
3.87433
 20
0.994751
 11
3.96844
 21
0.501328
  0
LINE
  8
0
 10
3.96844
 20
0.501328
 11
4
 21
0
  0
LINE
  8
0
 10
4
 20
0
 11
3.96844
 21
-0.501328
  0
LINE
  8
0
 10
3.96844
 20
-0.501328
 11
3.87433
 21
-0.994751
  0
LINE
  8
0
 10
3.87433
 20
-0.994751
 11
3.7191
 21
-1.47249
  0
LINE
  8
0
 10
3.7191
 20
-1.47249
 11
3.50522
 21
-1.927
  0
LINE
  8
0
 10
3.50522
 20
-1.927
 11
3.23605
 21
-2.35114
  0
LINE
  8
0
 10
3.23605
 20
-2.35114
 11
2.91586
 21
-2.73817
  0
LINE
  8
0
 10
2.91586
 20
-2.73817
 11
2.54968
 21
-3.08205
  0
LINE
  8
0
 10
2.54968
 20
-3.08205
 11
2.1433
 21
-3.3773
  0
LINE
  8
0
 10
2.1433
 20
-3.3773
 11
1.70311
 21
-3.61929
  0
LINE
  8
0
 10
1.70311
 20
-3.61929
 11
1.23605
 21
-3.80421
  0
LINE
  8
0
 10
1.23605
 20
-3.80421
 11
0.749512
 21
-3.92914
  0
LINE
  8
0
 10
0.749512
 20
-3.92914
 11
0.25116
 21
-3.9921
  0
LINE
  8
0
 10
0.25116
 20
-3.9921
 11
-0.25116
 21
-3.9921
  0
ENDSEC
  0
SECTION
  2
OBJECTS
  0
DICTIONARY
  0
ENDSEC
  0
EOF
