  0
SECTION
  2
BLOCKS
  0
ENDSEC
  0
SECTION
  2
ENTITIES
  0
LINE
  8
0
 10
17.9369
 20
47.0886
 11
18.5451
 21
47.2447
  0
LINE
  8
0
 10
18.5451
 20
47.2447
 11
19.1289
 21
47.4759
  0
LINE
  8
0
 10
19.1289
 20
47.4759
 11
19.6791
 21
47.7784
  0
LINE
  8
0
 10
19.6791
 20
47.7784
 11
20.1871
 21
48.1474
  0
LINE
  8
0
 10
20.1871
 20
48.1474
 11
20.6448
 21
48.5773
  0
LINE
  8
0
 10
20.6448
 20
48.5773
 11
21.0451
 21
49.0611
  0
LINE
  8
0
 10
21.0451
 20
49.0611
 11
21.3815
 21
49.5912
  0
LINE
  8
0
 10
21.3815
 20
49.5912
 11
21.6489
 21
50.1594
  0
LINE
  8
0
 10
21.6489
 20
50.1594
 11
21.8429
 21
50.7566
  0
LINE
  8
0
 10
21.8429
 20
50.7566
 11
21.9606
 21
51.3733
  0
LINE
  8
0
 10
21.9606
 20
51.3733
 11
22
 21
52
  0
LINE
  8
0
 10
22
 20
52
 11
22
 21
131
  0
LINE
  8
0
 10
22
 20
131
 11
21.9606
 21
131.627
  0
LINE
  8
0
 10
21.9606
 20
131.627
 11
21.8429
 21
132.243
  0
LINE
  8
0
 10
21.8429
 20
132.243
 11
21.6489
 21
132.841
  0
LINE
  8
0
 10
21.6489
 20
132.841
 11
21.3815
 21
133.409
  0
LINE
  8
0
 10
21.3815
 20
133.409
 11
21.0451
 21
133.939
  0
LINE
  8
0
 10
21.0451
 20
133.939
 11
20.6448
 21
134.423
  0
LINE
  8
0
 10
20.6448
 20
134.423
 11
20.1871
 21
134.853
  0
LINE
  8
0
 10
20.1871
 20
134.853
 11
19.6791
 21
135.222
  0
LINE
  8
0
 10
19.6791
 20
135.222
 11
19.1289
 21
135.524
  0
LINE
  8
0
 10
19.1289
 20
135.524
 11
18.5451
 21
135.755
  0
LINE
  8
0
 10
18.5451
 20
135.755
 11
17.9369
 21
135.911
  0
LINE
  8
0
 10
17.9369
 20
135.911
 11
17.3139
 21
135.99
  0
LINE
  8
0
 10
17.3139
 20
135.99
 11
-17.3139
 21
135.99
  0
LINE
  8
0
 10
-17.3139
 20
135.99
 11
-17.9369
 21
135.911
  0
LINE
  8
0
 10
-17.9369
 20
135.911
 11
-18.5451
 21
135.755
  0
LINE
  8
0
 10
-18.5451
 20
135.755
 11
-19.1289
 21
135.524
  0
LINE
  8
0
 10
-19.1289
 20
135.524
 11
-19.6791
 21
135.222
  0
LINE
  8
0
 10
-19.6791
 20
135.222
 11
-20.1871
 21
134.853
  0
LINE
  8
0
 10
-20.1871
 20
134.853
 11
-20.6448
 21
134.423
  0
LINE
  8
0
 10
-20.6448
 20
134.423
 11
-21.0451
 21
133.939
  0
LINE
  8
0
 10
-21.0451
 20
133.939
 11
-21.3815
 21
133.409
  0
LINE
  8
0
 10
-21.3815
 20
133.409
 11
-21.6489
 21
132.841
  0
LINE
  8
0
 10
-21.6489
 20
132.841
 11
-21.8429
 21
132.243
  0
LINE
  8
0
 10
-21.8429
 20
132.243
 11
-21.9606
 21
131.627
  0
LINE
  8
0
 10
-21.9606
 20
131.627
 11
-22
 21
131
  0
LINE
  8
0
 10
-22
 20
131
 11
-22
 21
52
  0
LINE
  8
0
 10
-22
 20
52
 11
-21.9606
 21
51.3733
  0
LINE
  8
0
 10
-21.9606
 20
51.3733
 11
-21.8429
 21
50.7566
  0
LINE
  8
0
 10
-21.8429
 20
50.7566
 11
-21.6489
 21
50.1594
  0
LINE
  8
0
 10
-21.6489
 20
50.1594
 11
-21.3815
 21
49.5912
  0
LINE
  8
0
 10
-21.3815
 20
49.5912
 11
-21.0451
 21
49.0611
  0
LINE
  8
0
 10
-21.0451
 20
49.0611
 11
-20.6448
 21
48.5773
  0
LINE
  8
0
 10
-20.6448
 20
48.5773
 11
-20.1871
 21
48.1474
  0
LINE
  8
0
 10
-20.1871
 20
48.1474
 11
-19.6791
 21
47.7784
  0
LINE
  8
0
 10
-19.6791
 20
47.7784
 11
-19.1289
 21
47.4759
  0
LINE
  8
0
 10
-19.1289
 20
47.4759
 11
-18.5451
 21
47.2447
  0
LINE
  8
0
 10
-18.5451
 20
47.2447
 11
-17.9369
 21
47.0886
  0
LINE
  8
0
 10
-17.9369
 20
47.0886
 11
-17.3139
 21
47.0099
  0
LINE
  8
0
 10
-17.3139
 20
47.0099
 11
17.3139
 21
47.0099
  0
LINE
  8
0
 10
17.3139
 20
47.0099
 11
17.9369
 21
47.0886
  0
LINE
  8
0
 10
14.8116
 20
126.006
 11
14.4379
 21
126.053
  0
LINE
  8
0
 10
14.4379
 20
126.053
 11
14.0729
 21
126.147
  0
LINE
  8
0
 10
14.0729
 20
126.147
 11
13.7227
 21
126.286
  0
LINE
  8
0
 10
13.7227
 20
126.286
 11
13.3925
 21
126.467
  0
LINE
  8
0
 10
13.3925
 20
126.467
 11
13.0877
 21
126.688
  0
LINE
  8
0
 10
13.0877
 20
126.688
 11
12.8131
 21
126.946
  0
LINE
  8
0
 10
12.8131
 20
126.946
 11
12.5729
 21
127.237
  0
LINE
  8
0
 10
12.5729
 20
127.237
 11
12.3711
 21
127.555
  0
LINE
  8
0
 10
12.3711
 20
127.555
 11
12.2107
 21
127.896
  0
LINE
  8
0
 10
12.2107
 20
127.896
 11
12.0942
 21
128.254
  0
LINE
  8
0
 10
12.0942
 20
128.254
 11
12.0237
 21
128.624
  0
LINE
  8
0
 10
12.0237
 20
128.624
 11
12
 21
129
  0
LINE
  8
0
 10
12
 20
129
 11
12.0237
 21
129.376
  0
LINE
  8
0
 10
12.0237
 20
129.376
 11
12.0942
 21
129.746
  0
LINE
  8
0
 10
12.0942
 20
129.746
 11
12.2107
 21
130.104
  0
LINE
  8
0
 10
12.2107
 20
130.104
 11
12.3711
 21
130.445
  0
LINE
  8
0
 10
12.3711
 20
130.445
 11
12.5729
 21
130.763
  0
LINE
  8
0
 10
12.5729
 20
130.763
 11
12.8131
 21
131.054
  0
LINE
  8
0
 10
12.8131
 20
131.054
 11
13.0877
 21
131.312
  0
LINE
  8
0
 10
13.0877
 20
131.312
 11
13.3925
 21
131.533
  0
LINE
  8
0
 10
13.3925
 20
131.533
 11
13.7227
 21
131.714
  0
LINE
  8
0
 10
13.7227
 20
131.714
 11
14.0729
 21
131.853
  0
LINE
  8
0
 10
14.0729
 20
131.853
 11
14.4379
 21
131.947
  0
LINE
  8
0
 10
14.4379
 20
131.947
 11
14.8116
 21
131.994
  0
LINE
  8
0
 10
14.8116
 20
131.994
 11
15.1884
 21
131.994
  0
LINE
  8
0
 10
15.1884
 20
131.994
 11
15.5621
 21
131.947
  0
LINE
  8
0
 10
15.5621
 20
131.947
 11
15.927
 21
131.853
  0
LINE
  8
0
 10
15.927
 20
131.853
 11
16.2773
 21
131.714
  0
LINE
  8
0
 10
16.2773
 20
131.714
 11
16.6075
 21
131.533
  0
LINE
  8
0
 10
16.6075
 20
131.533
 11
16.9123
 21
131.312
  0
LINE
  8
0
 10
16.9123
 20
131.312
 11
17.1869
 21
131.054
  0
LINE
  8
0
 10
17.1869
 20
131.054
 11
17.427
 21
130.763
  0
LINE
  8
0
 10
17.427
 20
130.763
 11
17.6289
 21
130.445
  0
LINE
  8
0
 10
17.6289
 20
130.445
 11
17.7893
 21
130.104
  0
LINE
  8
0
 10
17.7893
 20
130.104
 11
17.9057
 21
129.746
  0
LINE
  8
0
 10
17.9057
 20
129.746
 11
17.9763
 21
129.376
  0
LINE
  8
0
 10
17.9763
 20
129.376
 11
18
 21
129
  0
LINE
  8
0
 10
18
 20
129
 11
17.9763
 21
128.624
  0
LINE
  8
0
 10
17.9763
 20
128.624
 11
17.9057
 21
128.254
  0
LINE
  8
0
 10
17.9057
 20
128.254
 11
17.7893
 21
127.896
  0
LINE
  8
0
 10
17.7893
 20
127.896
 11
17.6289
 21
127.555
  0
LINE
  8
0
 10
17.6289
 20
127.555
 11
17.427
 21
127.237
  0
LINE
  8
0
 10
17.427
 20
127.237
 11
17.1869
 21
126.946
  0
LINE
  8
0
 10
17.1869
 20
126.946
 11
16.9123
 21
126.688
  0
LINE
  8
0
 10
16.9123
 20
126.688
 11
16.6075
 21
126.467
  0
LINE
  8
0
 10
16.6075
 20
126.467
 11
16.2773
 21
126.286
  0
LINE
  8
0
 10
16.2773
 20
126.286
 11
15.927
 21
126.147
  0
LINE
  8
0
 10
15.927
 20
126.147
 11
15.5621
 21
126.053
  0
LINE
  8
0
 10
15.5621
 20
126.053
 11
15.1884
 21
126.006
  0
LINE
  8
0
 10
15.1884
 20
126.006
 11
14.8116
 21
126.006
  0
LINE
  8
0
 10
-15.1884
 20
126.006
 11
-15.5621
 21
126.053
  0
LINE
  8
0
 10
-15.5621
 20
126.053
 11
-15.927
 21
126.147
  0
LINE
  8
0
 10
-15.927
 20
126.147
 11
-16.2773
 21
126.286
  0
LINE
  8
0
 10
-16.2773
 20
126.286
 11
-16.6075
 21
126.467
  0
LINE
  8
0
 10
-16.6075
 20
126.467
 11
-16.9123
 21
126.688
  0
LINE
  8
0
 10
-16.9123
 20
126.688
 11
-17.1869
 21
126.946
  0
LINE
  8
0
 10
-17.1869
 20
126.946
 11
-17.427
 21
127.237
  0
LINE
  8
0
 10
-17.427
 20
127.237
 11
-17.6289
 21
127.555
  0
LINE
  8
0
 10
-17.6289
 20
127.555
 11
-17.7893
 21
127.896
  0
LINE
  8
0
 10
-17.7893
 20
127.896
 11
-17.9057
 21
128.254
  0
LINE
  8
0
 10
-17.9057
 20
128.254
 11
-17.9763
 21
128.624
  0
LINE
  8
0
 10
-17.9763
 20
128.624
 11
-18
 21
129
  0
LINE
  8
0
 10
-18
 20
129
 11
-17.9763
 21
129.376
  0
LINE
  8
0
 10
-17.9763
 20
129.376
 11
-17.9057
 21
129.746
  0
LINE
  8
0
 10
-17.9057
 20
129.746
 11
-17.7893
 21
130.104
  0
LINE
  8
0
 10
-17.7893
 20
130.104
 11
-17.6289
 21
130.445
  0
LINE
  8
0
 10
-17.6289
 20
130.445
 11
-17.427
 21
130.763
  0
LINE
  8
0
 10
-17.427
 20
130.763
 11
-17.1869
 21
131.054
  0
LINE
  8
0
 10
-17.1869
 20
131.054
 11
-16.9123
 21
131.312
  0
LINE
  8
0
 10
-16.9123
 20
131.312
 11
-16.6075
 21
131.533
  0
LINE
  8
0
 10
-16.6075
 20
131.533
 11
-16.2773
 21
131.714
  0
LINE
  8
0
 10
-16.2773
 20
131.714
 11
-15.927
 21
131.853
  0
LINE
  8
0
 10
-15.927
 20
131.853
 11
-15.5621
 21
131.947
  0
LINE
  8
0
 10
-15.5621
 20
131.947
 11
-15.1884
 21
131.994
  0
LINE
  8
0
 10
-15.1884
 20
131.994
 11
-14.8116
 21
131.994
  0
LINE
  8
0
 10
-14.8116
 20
131.994
 11
-14.4379
 21
131.947
  0
LINE
  8
0
 10
-14.4379
 20
131.947
 11
-14.0729
 21
131.853
  0
LINE
  8
0
 10
-14.0729
 20
131.853
 11
-13.7227
 21
131.714
  0
LINE
  8
0
 10
-13.7227
 20
131.714
 11
-13.3925
 21
131.533
  0
LINE
  8
0
 10
-13.3925
 20
131.533
 11
-13.0877
 21
131.312
  0
LINE
  8
0
 10
-13.0877
 20
131.312
 11
-12.8131
 21
131.054
  0
LINE
  8
0
 10
-12.8131
 20
131.054
 11
-12.5729
 21
130.763
  0
LINE
  8
0
 10
-12.5729
 20
130.763
 11
-12.3711
 21
130.445
  0
LINE
  8
0
 10
-12.3711
 20
130.445
 11
-12.2107
 21
130.104
  0
LINE
  8
0
 10
-12.2107
 20
130.104
 11
-12.0942
 21
129.746
  0
LINE
  8
0
 10
-12.0942
 20
129.746
 11
-12.0237
 21
129.376
  0
LINE
  8
0
 10
-12.0237
 20
129.376
 11
-12
 21
129
  0
LINE
  8
0
 10
-12
 20
129
 11
-12.0237
 21
128.624
  0
LINE
  8
0
 10
-12.0237
 20
128.624
 11
-12.0942
 21
128.254
  0
LINE
  8
0
 10
-12.0942
 20
128.254
 11
-12.2107
 21
127.896
  0
LINE
  8
0
 10
-12.2107
 20
127.896
 11
-12.3711
 21
127.555
  0
LINE
  8
0
 10
-12.3711
 20
127.555
 11
-12.5729
 21
127.237
  0
LINE
  8
0
 10
-12.5729
 20
127.237
 11
-12.8131
 21
126.946
  0
LINE
  8
0
 10
-12.8131
 20
126.946
 11
-13.0877
 21
126.688
  0
LINE
  8
0
 10
-13.0877
 20
126.688
 11
-13.3925
 21
126.467
  0
LINE
  8
0
 10
-13.3925
 20
126.467
 11
-13.7227
 21
126.286
  0
LINE
  8
0
 10
-13.7227
 20
126.286
 11
-14.0729
 21
126.147
  0
LINE
  8
0
 10
-14.0729
 20
126.147
 11
-14.4379
 21
126.053
  0
LINE
  8
0
 10
-14.4379
 20
126.053
 11
-14.8116
 21
126.006
  0
LINE
  8
0
 10
-14.8116
 20
126.006
 11
-15.1884
 21
126.006
  0
LINE
  8
0
 10
-0.939987
 20
69.0591
 11
-1.86517
 21
69.2356
  0
LINE
  8
0
 10
-1.86517
 20
69.2356
 11
-2.76093
 21
69.5267
  0
LINE
  8
0
 10
-2.76093
 20
69.5267
 11
-3.61314
 21
69.9277
  0
LINE
  8
0
 10
-3.61314
 20
69.9277
 11
-4.40839
 21
70.4324
  0
LINE
  8
0
 10
-4.40839
 20
70.4324
 11
-5.13409
 21
71.0327
  0
LINE
  8
0
 10
-5.13409
 20
71.0327
 11
-5.77884
 21
71.7193
  0
LINE
  8
0
 10
-5.77884
 20
71.7193
 11
-6.33246
 21
72.4813
  0
LINE
  8
0
 10
-6.33246
 20
72.4813
 11
-6.78619
 21
73.3067
  0
LINE
  8
0
 10
-6.78619
 20
73.3067
 11
-7.13292
 21
74.1824
  0
LINE
  8
0
 10
-7.13292
 20
74.1824
 11
-7.36714
 21
75.0947
  0
LINE
  8
0
 10
-7.36714
 20
75.0947
 11
-7.4852
 21
76.0291
  0
LINE
  8
0
 10
-7.4852
 20
76.0291
 11
-7.4852
 21
93.7843
  0
LINE
  8
0
 10
-7.4852
 20
93.7843
 11
-8.60521
 21
94.5981
  0
LINE
  8
0
 10
-8.60521
 20
94.5981
 11
-9.84106
 21
95.7586
  0
LINE
  8
0
 10
-9.84106
 20
95.7586
 11
-10.9217
 21
97.0649
  0
LINE
  8
0
 10
-10.9217
 20
97.0649
 11
-11.8301
 21
98.4963
  0
LINE
  8
0
 10
-11.8301
 20
98.4963
 11
-12.552
 21
100.03
  0
LINE
  8
0
 10
-12.552
 20
100.03
 11
-13.0759
 21
101.643
  0
LINE
  8
0
 10
-13.0759
 20
101.643
 11
-13.3935
 21
103.308
  0
LINE
  8
0
 10
-13.3935
 20
103.308
 11
-13.5
 21
105
  0
LINE
  8
0
 10
-13.5
 20
105
 11
-13.3935
 21
106.692
  0
LINE
  8
0
 10
-13.3935
 20
106.692
 11
-13.0759
 21
108.357
  0
LINE
  8
0
 10
-13.0759
 20
108.357
 11
-12.552
 21
109.97
  0
LINE
  8
0
 10
-12.552
 20
109.97
 11
-11.8301
 21
111.504
  0
LINE
  8
0
 10
-11.8301
 20
111.504
 11
-10.9217
 21
112.935
  0
LINE
  8
0
 10
-10.9217
 20
112.935
 11
-9.84106
 21
114.241
  0
LINE
  8
0
 10
-9.84106
 20
114.241
 11
-8.60521
 21
115.402
  0
LINE
  8
0
 10
-8.60521
 20
115.402
 11
-7.4852
 21
116.216
  0
LINE
  8
0
 10
-7.4852
 20
116.216
 11
-7.4852
 21
121.971
  0
LINE
  8
0
 10
-7.4852
 20
121.971
 11
-7.36714
 21
122.905
  0
LINE
  8
0
 10
-7.36714
 20
122.905
 11
-7.13292
 21
123.818
  0
LINE
  8
0
 10
-7.13292
 20
123.818
 11
-6.78619
 21
124.693
  0
LINE
  8
0
 10
-6.78619
 20
124.693
 11
-6.33246
 21
125.519
  0
LINE
  8
0
 10
-6.33246
 20
125.519
 11
-5.77884
 21
126.281
  0
LINE
  8
0
 10
-5.77884
 20
126.281
 11
-5.13409
 21
126.967
  0
LINE
  8
0
 10
-5.13409
 20
126.967
 11
-4.40839
 21
127.568
  0
LINE
  8
0
 10
-4.40839
 20
127.568
 11
-3.61314
 21
128.072
  0
LINE
  8
0
 10
-3.61314
 20
128.072
 11
-2.76093
 21
128.473
  0
LINE
  8
0
 10
-2.76093
 20
128.473
 11
-1.86517
 21
128.764
  0
LINE
  8
0
 10
-1.86517
 20
128.764
 11
-0.939987
 21
128.941
  0
LINE
  8
0
 10
-0.939987
 20
128.941
 11
0
 21
129
  0
LINE
  8
0
 10
0
 20
129
 11
0.939987
 21
128.941
  0
LINE
  8
0
 10
0.939987
 20
128.941
 11
1.86517
 21
128.764
  0
LINE
  8
0
 10
1.86517
 20
128.764
 11
2.76093
 21
128.473
  0
LINE
  8
0
 10
2.76093
 20
128.473
 11
3.61314
 21
128.072
  0
LINE
  8
0
 10
3.61314
 20
128.072
 11
4.40839
 21
127.568
  0
LINE
  8
0
 10
4.40839
 20
127.568
 11
5.13409
 21
126.967
  0
LINE
  8
0
 10
5.13409
 20
126.967
 11
5.77884
 21
126.281
  0
LINE
  8
0
 10
5.77884
 20
126.281
 11
6.33246
 21
125.519
  0
LINE
  8
0
 10
6.33246
 20
125.519
 11
6.78619
 21
124.693
  0
LINE
  8
0
 10
6.78619
 20
124.693
 11
7.13292
 21
123.818
  0
LINE
  8
0
 10
7.13292
 20
123.818
 11
7.36714
 21
122.905
  0
LINE
  8
0
 10
7.36714
 20
122.905
 11
7.4852
 21
121.971
  0
LINE
  8
0
 10
7.4852
 20
121.971
 11
7.4852
 21
116.216
  0
LINE
  8
0
 10
7.4852
 20
116.216
 11
8.60521
 21
115.402
  0
LINE
  8
0
 10
8.60521
 20
115.402
 11
9.84106
 21
114.241
  0
LINE
  8
0
 10
9.84106
 20
114.241
 11
10.9217
 21
112.935
  0
LINE
  8
0
 10
10.9217
 20
112.935
 11
11.8301
 21
111.504
  0
LINE
  8
0
 10
11.8301
 20
111.504
 11
12.552
 21
109.97
  0
LINE
  8
0
 10
12.552
 20
109.97
 11
13.0759
 21
108.357
  0
LINE
  8
0
 10
13.0759
 20
108.357
 11
13.3935
 21
106.692
  0
LINE
  8
0
 10
13.3935
 20
106.692
 11
13.5
 21
105
  0
LINE
  8
0
 10
13.5
 20
105
 11
13.3935
 21
103.308
  0
LINE
  8
0
 10
13.3935
 20
103.308
 11
13.0759
 21
101.643
  0
LINE
  8
0
 10
13.0759
 20
101.643
 11
12.552
 21
100.03
  0
LINE
  8
0
 10
12.552
 20
100.03
 11
11.8301
 21
98.4963
  0
LINE
  8
0
 10
11.8301
 20
98.4963
 11
10.9217
 21
97.0649
  0
LINE
  8
0
 10
10.9217
 20
97.0649
 11
9.84106
 21
95.7586
  0
LINE
  8
0
 10
9.84106
 20
95.7586
 11
8.60521
 21
94.5981
  0
LINE
  8
0
 10
8.60521
 20
94.5981
 11
7.4852
 21
93.7843
  0
LINE
  8
0
 10
7.4852
 20
93.7843
 11
7.4852
 21
76.0291
  0
LINE
  8
0
 10
7.4852
 20
76.0291
 11
7.36714
 21
75.0947
  0
LINE
  8
0
 10
7.36714
 20
75.0947
 11
7.13292
 21
74.1824
  0
LINE
  8
0
 10
7.13292
 20
74.1824
 11
6.78619
 21
73.3067
  0
LINE
  8
0
 10
6.78619
 20
73.3067
 11
6.33246
 21
72.4813
  0
LINE
  8
0
 10
6.33246
 20
72.4813
 11
5.77884
 21
71.7193
  0
LINE
  8
0
 10
5.77884
 20
71.7193
 11
5.13409
 21
71.0327
  0
LINE
  8
0
 10
5.13409
 20
71.0327
 11
4.40839
 21
70.4324
  0
LINE
  8
0
 10
4.40839
 20
70.4324
 11
3.61314
 21
69.9277
  0
LINE
  8
0
 10
3.61314
 20
69.9277
 11
2.76093
 21
69.5267
  0
LINE
  8
0
 10
2.76093
 20
69.5267
 11
1.86517
 21
69.2356
  0
LINE
  8
0
 10
1.86517
 20
69.2356
 11
0.939987
 21
69.0591
  0
LINE
  8
0
 10
0.939987
 20
69.0591
 11
0
 21
69
  0
LINE
  8
0
 10
0
 20
69
 11
-0.939987
 21
69.0591
  0
ENDSEC
  0
SECTION
  2
OBJECTS
  0
DICTIONARY
  0
ENDSEC
  0
EOF
