<?xml version="1.0" standalone="no"?>
<!DOCTYPE svg PUBLIC "-//W3C//DTD SVG 1.1//EN" "http://www.w3.org/Graphics/SVG/1.1/DTD/svg11.dtd">
<svg width="44mm" height="89mm" viewBox="-22 -136 44 89" xmlns="http://www.w3.org/2000/svg" version="1.1">
<title>OpenSCAD Model</title>
<path d="
M 17.9369,-47.0886 L 18.5451,-47.2447 L 19.1289,-47.4759 L 19.6791,-47.7784 L 20.1871,-48.1474 L 20.6448,-48.5773
 L 21.0451,-49.0611 L 21.3815,-49.5912 L 21.6489,-50.1594 L 21.8429,-50.7566 L 21.9606,-51.3733 L 22,-52
 L 22,-131 L 21.9606,-131.627 L 21.8429,-132.243 L 21.6489,-132.841 L 21.3815,-133.409 L 21.0451,-133.939
 L 20.6448,-134.423 L 20.1871,-134.853 L 19.6791,-135.222 L 19.1289,-135.524 L 18.5451,-135.755 L 17.9369,-135.911
 L 17.3139,-135.99 L -17.3139,-135.99 L -17.9369,-135.911 L -18.5451,-135.755 L -19.1289,-135.524 L -19.6791,-135.222
 L -20.1871,-134.853 L -20.6448,-134.423 L -21.0451,-133.939 L -21.3815,-133.409 L -21.6489,-132.841 L -21.8429,-132.243
 L -21.9606,-131.627 L -22,-131 L -22,-52 L -21.9606,-51.3733 L -21.8429,-50.7566 L -21.6489,-50.1594
 L -21.3815,-49.5912 L -21.0451,-49.0611 L -20.6448,-48.5773 L -20.1871,-48.1474 L -19.6791,-47.7784 L -19.1289,-47.4759
 L -18.5451,-47.2447 L -17.9369,-47.0886 L -17.3139,-47.0099 L 17.3139,-47.0099 z
M 14.8116,-126.006 L 14.4379,-126.053 L 14.0729,-126.147 L 13.7227,-126.286 L 13.3925,-126.467 L 13.0877,-126.688
 L 12.8131,-126.946 L 12.5729,-127.237 L 12.3711,-127.555 L 12.2107,-127.896 L 12.0942,-128.254 L 12.0237,-128.624
 L 12,-129 L 12.0237,-129.376 L 12.0942,-129.746 L 12.2107,-130.104 L 12.3711,-130.445 L 12.5729,-130.763
 L 12.8131,-131.054 L 13.0877,-131.312 L 13.3925,-131.533 L 13.7227,-131.714 L 14.0729,-131.853 L 14.4379,-131.947
 L 14.8116,-131.994 L 15.1884,-131.994 L 15.5621,-131.947 L 15.927,-131.853 L 16.2773,-131.714 L 16.6075,-131.533
 L 16.9123,-131.312 L 17.1869,-131.054 L 17.427,-130.763 L 17.6289,-130.445 L 17.7893,-130.104 L 17.9057,-129.746
 L 17.9763,-129.376 L 18,-129 L 17.9763,-128.624 L 17.9057,-128.254 L 17.7893,-127.896 L 17.6289,-127.555
 L 17.427,-127.237 L 17.1869,-126.946 L 16.9123,-126.688 L 16.6075,-126.467 L 16.2773,-126.286 L 15.927,-126.147
 L 15.5621,-126.053 L 15.1884,-126.006 z
M -15.1884,-126.006 L -15.5621,-126.053 L -15.927,-126.147 L -16.2773,-126.286 L -16.6075,-126.467 L -16.9123,-126.688
 L -17.1869,-126.946 L -17.427,-127.237 L -17.6289,-127.555 L -17.7893,-127.896 L -17.9057,-128.254 L -17.9763,-128.624
 L -18,-129 L -17.9763,-129.376 L -17.9057,-129.746 L -17.7893,-130.104 L -17.6289,-130.445 L -17.427,-130.763
 L -17.1869,-131.054 L -16.9123,-131.312 L -16.6075,-131.533 L -16.2773,-131.714 L -15.927,-131.853 L -15.5621,-131.947
 L -15.1884,-131.994 L -14.8116,-131.994 L -14.4379,-131.947 L -14.0729,-131.853 L -13.7227,-131.714 L -13.3925,-131.533
 L -13.0877,-131.312 L -12.8131,-131.054 L -12.5729,-130.763 L -12.3711,-130.445 L -12.2107,-130.104 L -12.0942,-129.746
 L -12.0237,-129.376 L -12,-129 L -12.0237,-128.624 L -12.0942,-128.254 L -12.2107,-127.896 L -12.3711,-127.555
 L -12.5729,-127.237 L -12.8131,-126.946 L -13.0877,-126.688 L -13.3925,-126.467 L -13.7227,-126.286 L -14.0729,-126.147
 L -14.4379,-126.053 L -14.8116,-126.006 z
M -0.939987,-69.0591 L -1.86517,-69.2356 L -2.76093,-69.5267 L -3.61314,-69.9277 L -4.40839,-70.4324 L -5.13409,-71.0327
 L -5.77884,-71.7193 L -6.33246,-72.4813 L -6.78619,-73.3067 L -7.13292,-74.1824 L -7.36714,-75.0947 L -7.4852,-76.0291
 L -7.4852,-93.7843 L -8.60521,-94.5981 L -9.84106,-95.7586 L -10.9217,-97.0649 L -11.8301,-98.4963 L -12.552,-100.03
 L -13.0759,-101.643 L -13.3935,-103.308 L -13.5,-105 L -13.3935,-106.692 L -13.0759,-108.357 L -12.552,-109.97
 L -11.8301,-111.504 L -10.9217,-112.935 L -9.84106,-114.241 L -8.60521,-115.402 L -7.4852,-116.216 L -7.4852,-121.971
 L -7.36714,-122.905 L -7.13292,-123.818 L -6.78619,-124.693 L -6.33246,-125.519 L -5.77884,-126.281 L -5.13409,-126.967
 L -4.40839,-127.568 L -3.61314,-128.072 L -2.76093,-128.473 L -1.86517,-128.764 L -0.939987,-128.941 L 0,-129
 L 0.939987,-128.941 L 1.86517,-128.764 L 2.76093,-128.473 L 3.61314,-128.072 L 4.40839,-127.568 L 5.13409,-126.967
 L 5.77884,-126.281 L 6.33246,-125.519 L 6.78619,-124.693 L 7.13292,-123.818 L 7.36714,-122.905 L 7.4852,-121.971
 L 7.4852,-116.216 L 8.60521,-115.402 L 9.84106,-114.241 L 10.9217,-112.935 L 11.8301,-111.504 L 12.552,-109.97
 L 13.0759,-108.357 L 13.3935,-106.692 L 13.5,-105 L 13.3935,-103.308 L 13.0759,-101.643 L 12.552,-100.03
 L 11.8301,-98.4963 L 10.9217,-97.0649 L 9.84106,-95.7586 L 8.60521,-94.5981 L 7.4852,-93.7843 L 7.4852,-76.0291
 L 7.36714,-75.0947 L 7.13292,-74.1824 L 6.78619,-73.3067 L 6.33246,-72.4813 L 5.77884,-71.7193 L 5.13409,-71.0327
 L 4.40839,-70.4324 L 3.61314,-69.9277 L 2.76093,-69.5267 L 1.86517,-69.2356 L 0.939987,-69.0591 L 0,-69
 z
" stroke="black" fill="lightgray" stroke-width="0.5"/>
</svg>
