  0
SECTION
  2
HEADER
  9
$ACADVER
  1
AC1021
  9
$ACADMAINTVER
 70
    25
  9
$DWGCODEPAGE
  3
ANSI_1252
  9
$INSBASE
 10
0.0
 20
0.0
 30
0.0
  9
$EXTMIN
 10
-2.225
 20
-4.47401
 30
0.0
  9
$EXTMAX
 10
2.225
 20
4.474
 30
0.0
  9
$LIMMIN
 10
0.0
 20
0.0
  9
$LIMMAX
 10
12.0
 20
9.0
  9
$ORTHOMODE
 70
     0
  9
$REGENMODE
 70
     1
  9
$FILLMODE
 70
     1
  9
$QTEXTMODE
 70
     0
  9
$MIRRTEXT
 70
     1
  9
$LTSCALE
 40
1.0
  9
$ATTMODE
 70
     1
  9
$TEXTSIZE
 40
0.2
  9
$TRACEWID
 40
0.05
  9
$TEXTSTYLE
  7
Standard
  9
$CLAYER
  8
0
  9
$CELTYPE
  6
ByLayer
  9
$CECOLOR
 62
   256
  9
$CELTSCALE
 40
1.0
  9
$DISPSILH
 70
     0
  9
$DIMSCALE
 40
1.0
  9
$DIMASZ
 40
0.18
  9
$DIMEXO
 40
0.0625
  9
$DIMDLI
 40
0.38
  9
$DIMRND
 40
0.0
  9
$DIMDLE
 40
0.0
  9
$DIMEXE
 40
0.18
  9
$DIMTP
 40
0.0
  9
$DIMTM
 40
0.0
  9
$DIMTXT
 40
0.18
  9
$DIMCEN
 40
0.09
  9
$DIMTSZ
 40
0.0
  9
$DIMTOL
 70
     0
  9
$DIMLIM
 70
     0
  9
$DIMTIH
 70
     1
  9
$DIMTOH
 70
     1
  9
$DIMSE1
 70
     0
  9
$DIMSE2
 70
     0
  9
$DIMTAD
 70
     0
  9
$DIMZIN
 70
     0
  9
$DIMBLK
  1

  9
$DIMASO
 70
     1
  9
$DIMSHO
 70
     1
  9
$DIMPOST
  1

  9
$DIMAPOST
  1

  9
$DIMALT
 70
     0
  9
$DIMALTD
 70
     2
  9
$DIMALTF
 40
25.4
  9
$DIMLFAC
 40
1.0
  9
$DIMTOFL
 70
     0
  9
$DIMTVP
 40
0.0
  9
$DIMTIX
 70
     0
  9
$DIMSOXD
 70
     0
  9
$DIMSAH
 70
     0
  9
$DIMBLK1
  1

  9
$DIMBLK2
  1

  9
$DIMSTYLE
  2
Standard
  9
$DIMCLRD
 70
     0
  9
$DIMCLRE
 70
     0
  9
$DIMCLRT
 70
     0
  9
$DIMTFAC
 40
1.0
  9
$DIMGAP
 40
0.09
  9
$DIMJUST
 70
     0
  9
$DIMSD1
 70
     0
  9
$DIMSD2
 70
     0
  9
$DIMTOLJ
 70
     1
  9
$DIMTZIN
 70
     0
  9
$DIMALTZ
 70
     0
  9
$DIMALTTZ
 70
     0
  9
$DIMUPT
 70
     0
  9
$DIMDEC
 70
     4
  9
$DIMTDEC
 70
     4
  9
$DIMALTU
 70
     2
  9
$DIMALTTD
 70
     2
  9
$DIMTXSTY
  7
Standard
  9
$DIMAUNIT
 70
     0
  9
$DIMADEC
 70
     0
  9
$DIMALTRND
 40
0.0
  9
$DIMAZIN
 70
     0
  9
$DIMDSEP
 70
    46
  9
$DIMATFIT
 70
     3
  9
$DIMFRAC
 70
     0
  9
$DIMLDRBLK
  1

  9
$DIMLUNIT
 70
     2
  9
$DIMLWD
 70
    -2
  9
$DIMLWE
 70
    -2
  9
$DIMTMOVE
 70
     0
  9
$DIMFXL
 40
1.0
  9
$DIMFXLON
 70
     0
  9
$DIMJOGANG
 40
0.7853981633974483
  9
$DIMTFILL
 70
     0
  9
$DIMTFILLCLR
 70
     0
  9
$DIMARCSYM
 70
     0
  9
$DIMLTYPE
  6

  9
$DIMLTEX1
  6

  9
$DIMLTEX2
  6

  9
$LUNITS
 70
     2
  9
$LUPREC
 70
     4
  9
$SKETCHINC
 40
0.1
  9
$FILLETRAD
 40
0.5
  9
$AUNITS
 70
     0
  9
$AUPREC
 70
     0
  9
$MENU
  1
.
  9
$ELEVATION
 40
0.0
  9
$PELEVATION
 40
0.0
  9
$THICKNESS
 40
0.0
  9
$LIMCHECK
 70
     0
  9
$CHAMFERA
 40
0.5
  9
$CHAMFERB
 40
0.5
  9
$CHAMFERC
 40
1.0
  9
$CHAMFERD
 40
0.0
  9
$SKPOLY
 70
     0
  9
$TDCREATE
 40
2460641.541833067
  9
$TDUCREATE
 40
2460641.541833067
  9
$TDUPDATE
 40
2460641.541833078
  9
$TDUUPDATE
 40
2460641.541833078
  9
$TDINDWG
 40
0.0000000116
  9
$TDUSRTIMER
 40
0.0000000116
  9
$USRTIMER
 70
     1
  9
$ANGBASE
 50
0.0
  9
$ANGDIR
 70
     0
  9
$PDMODE
 70
     0
  9
$PDSIZE
 40
0.0
  9
$PLINEWID
 40
0.0
  9
$SPLFRAME
 70
     0
  9
$SPLINETYPE
 70
     6
  9
$SPLINESEGS
 70
     8
  9
$HANDSEED
  5
67
  9
$SURFTAB1
 70
     6
  9
$SURFTAB2
 70
     6
  9
$SURFTYPE
 70
     6
  9
$SURFU
 70
     6
  9
$SURFV
 70
     6
  9
$UCSBASE
  2

  9
$UCSNAME
  2

  9
$UCSORG
 10
0.0
 20
0.0
 30
0.0
  9
$UCSXDIR
 10
1.0
 20
0.0
 30
0.0
  9
$UCSYDIR
 10
0.0
 20
1.0
 30
0.0
  9
$UCSORTHOREF
  2

  9
$UCSORTHOVIEW
 70
     0
  9
$UCSORGTOP
 10
0.0
 20
0.0
 30
0.0
  9
$UCSORGBOTTOM
 10
0.0
 20
0.0
 30
0.0
  9
$UCSORGLEFT
 10
0.0
 20
0.0
 30
0.0
  9
$UCSORGRIGHT
 10
0.0
 20
0.0
 30
0.0
  9
$UCSORGFRONT
 10
0.0
 20
0.0
 30
0.0
  9
$UCSORGBACK
 10
0.0
 20
0.0
 30
0.0
  9
$PUCSBASE
  2

  9
$PUCSNAME
  2

  9
$PUCSORG
 10
0.0
 20
0.0
 30
0.0
  9
$PUCSXDIR
 10
1.0
 20
0.0
 30
0.0
  9
$PUCSYDIR
 10
0.0
 20
1.0
 30
0.0
  9
$PUCSORTHOREF
  2

  9
$PUCSORTHOVIEW
 70
     0
  9
$PUCSORGTOP
 10
0.0
 20
0.0
 30
0.0
  9
$PUCSORGBOTTOM
 10
0.0
 20
0.0
 30
0.0
  9
$PUCSORGLEFT
 10
0.0
 20
0.0
 30
0.0
  9
$PUCSORGRIGHT
 10
0.0
 20
0.0
 30
0.0
  9
$PUCSORGFRONT
 10
0.0
 20
0.0
 30
0.0
  9
$PUCSORGBACK
 10
0.0
 20
0.0
 30
0.0
  9
$USERI1
 70
     0
  9
$USERI2
 70
     0
  9
$USERI3
 70
     0
  9
$USERI4
 70
     0
  9
$USERI5
 70
     0
  9
$USERR1
 40
0.0
  9
$USERR2
 40
0.0
  9
$USERR3
 40
0.0
  9
$USERR4
 40
0.0
  9
$USERR5
 40
0.0
  9
$WORLDVIEW
 70
     1
  9
$SHADEDGE
 70
     3
  9
$SHADEDIF
 70
    70
  9
$TILEMODE
 70
     1
  9
$MAXACTVP
 70
    64
  9
$PINSBASE
 10
0.0
 20
0.0
 30
0.0
  9
$PLIMCHECK
 70
     0
  9
$PEXTMIN
 10
1.000000000000000E+20
 20
1.000000000000000E+20
 30
1.000000000000000E+20
  9
$PEXTMAX
 10
-1.000000000000000E+20
 20
-1.000000000000000E+20
 30
-1.000000000000000E+20
  9
$PLIMMIN
 10
0.0
 20
0.0
  9
$PLIMMAX
 10
12.0
 20
9.0
  9
$UNITMODE
 70
     0
  9
$VISRETAIN
 70
     1
  9
$PLINEGEN
 70
     0
  9
$PSLTSCALE
 70
     1
  9
$TREEDEPTH
 70
  3020
  9
$CMLSTYLE
  2
Standard
  9
$CMLJUST
 70
     0
  9
$CMLSCALE
 40
1.0
  9
$PROXYGRAPHICS
 70
     1
  9
$MEASUREMENT
 70
     0
  9
$CELWEIGHT
370
    -1
  9
$ENDCAPS
280
     0
  9
$JOINSTYLE
280
     0
  9
$LWDISPLAY
290
     0
  9
$INSUNITS
 70
     5
  9
$HYPERLINKBASE
  1

  9
$STYLESHEET
  1

  9
$XEDIT
290
     1
  9
$CEPSNTYPE
380
     0
  9
$PSTYLEMODE
290
     1
  9
$FINGERPRINTGUID
  2
{5D269597-96EC-4F56-874D-1C30F822893B}
  9
$VERSIONGUID
  2
{FAEB1C32-E019-11D5-929B-00C0DF256EC4}
  9
$EXTNAMES
290
     1
  9
$PSVPSCALE
 40
0.0
  9
$OLESTARTUP
290
     0
  9
$SORTENTS
280
   127
  9
$INDEXCTL
280
     0
  9
$HIDETEXT
280
     1
  9
$XCLIPFRAME
290
     0
  9
$HALOGAP
280
     0
  9
$OBSCOLOR
 70
   257
  9
$OBSLTYPE
280
     0
  9
$INTERSECTIONDISPLAY
280
     0
  9
$INTERSECTIONCOLOR
 70
   257
  9
$DIMASSOC
280
     2
  9
$PROJECTNAME
  1

  9
$CAMERADISPLAY
290
     0
  9
$LENSLENGTH
 40
50.0
  9
$CAMERAHEIGHT
 40
0.0
  9
$STEPSPERSEC
 40
2.0
  9
$STEPSIZE
 40
6.0
  9
$3DDWFPREC
 40
2.0
  9
$PSOLWIDTH
 40
0.25
  9
$PSOLHEIGHT
 40
4.0
  9
$LOFTANG1
 40
1.570796326794897
  9
$LOFTANG2
 40
1.570796326794897
  9
$LOFTMAG1
 40
0.0
  9
$LOFTMAG2
 40
0.0
  9
$LOFTPARAM
 70
     7
  9
$LOFTNORMALS
280
     1
  9
$LATITUDE
 40
37.795
  9
$LONGITUDE
 40
-122.394
  9
$NORTHDIRECTION
 40
0.0
  9
$TIMEZONE
 70
 -8000
  9
$LIGHTGLYPHDISPLAY
280
     1
  9
$TILEMODELIGHTSYNCH
280
     1
  9
$SOLIDHIST
280
     1
  9
$SHOWHIST
280
     1
  9
$DWFFRAME
280
     2
  9
$DGNFRAME
280
     2
  9
$REALWORLDSCALE
290
     1
  9
$INTERFERECOLOR
 62
   256
  9
$CSHADOW
280
     0
  9
$SHADOWPLANELOCATION
 40
0.0
  0
ENDSEC
  0
SECTION
  2
CLASSES
  0
CLASS
  1
ACDBDICTIONARYWDFLT
  2
AcDbDictionaryWithDefault
  3
ObjectDBX Classes
 90
        0
 91
        4
280
     0
281
     0
  0
CLASS
  1
VISUALSTYLE
  2
AcDbVisualStyle
  3
ObjectDBX Classes
 90
     4095
 91
        4
280
     0
281
     0
  0
CLASS
  1
MATERIAL
  2
AcDbMaterial
  3
ObjectDBX Classes
 90
     1153
 91
        4
280
     0
281
     0
  0
ENDSEC
  0
SECTION
  2
TABLES
  0
TABLE
  2
VPORT
  5
8
330
0
100
AcDbSymbolTable
 70
     1
  0
VPORT
  5
29
330
8
100
AcDbSymbolTableRecord
100
AcDbViewportTableRecord
  2
*Active
 70
     0
 10
0.0
 20
0.0
 11
1.0
 21
1.0
 12
10.42990654205607
 22
4.5
 13
0.0
 23
0.0
 14
0.5
 24
0.5
 15
0.5
 25
0.5
 16
0.0
 26
0.0
 36
1.0
 17
0.0
 27
0.0
 37
0.0
 40
9.0
 41
1.972972972850329
 42
50.0
 43
0.0
 44
0.0
 50
0.0
 51
0.0
 71
     0
 72
   100
 73
     1
 74
     3
 75
     0
 76
     0
 77
     0
 78
     0
281
     0
 65
     1
110
0.0
120
0.0
130
0.0
111
1.0
121
0.0
131
0.0
112
0.0
122
1.0
132
0.0
 79
     0
146
0.0
 60
     3
 61
     5
292
     1
282
     1
141
0.0
142
0.0
 63
   250
  0
ENDTAB
  0
TABLE
  2
LTYPE
  5
5
330
0
100
AcDbSymbolTable
 70
     1
  0
LTYPE
  5
14
330
5
100
AcDbSymbolTableRecord
100
AcDbLinetypeTableRecord
  2
ByBlock
 70
     0
  3

 72
    65
 73
     0
 40
0.0
  0
LTYPE
  5
15
330
5
100
AcDbSymbolTableRecord
100
AcDbLinetypeTableRecord
  2
ByLayer
 70
     0
  3

 72
    65
 73
     0
 40
0.0
  0
LTYPE
  5
16
330
5
100
AcDbSymbolTableRecord
100
AcDbLinetypeTableRecord
  2
Continuous
 70
     0
  3
Solid line
 72
    65
 73
     0
 40
0.0
  0
ENDTAB
  0
TABLE
  2
LAYER
  5
2
330
0
100
AcDbSymbolTable
 70
     2
  0
LAYER
  5
10
330
2
100
AcDbSymbolTableRecord
100
AcDbLayerTableRecord
  2
0
 70
     0
 62
     7
  6
Continuous
370
    -3
390
F
347
3E
  0
LAYER
  5
40
330
2
100
AcDbSymbolTableRecord
100
AcDbLayerTableRecord
  2
Layer 1
 70
     0
 62
     7
  6
Continuous
370
    -3
390
F
347
3E
  0
ENDTAB
  0
TABLE
  2
STYLE
  5
3
330
0
100
AcDbSymbolTable
 70
     1
  0
STYLE
  5
11
330
3
100
AcDbSymbolTableRecord
100
AcDbTextStyleTableRecord
  2
Standard
 70
     0
 40
0.0
 41
1.0
 50
0.0
 71
     0
 42
0.2
  3
txt
  4

  0
ENDTAB
  0
TABLE
  2
VIEW
  5
6
330
0
100
AcDbSymbolTable
 70
     0
  0
ENDTAB
  0
TABLE
  2
UCS
  5
7
330
0
100
AcDbSymbolTable
 70
     0
  0
ENDTAB
  0
TABLE
  2
APPID
  5
9
330
0
100
AcDbSymbolTable
 70
     2
  0
APPID
  5
12
330
9
100
AcDbSymbolTableRecord
100
AcDbRegAppTableRecord
  2
ACAD
 70
     0
  0
APPID
  5
3F
330
9
100
AcDbSymbolTableRecord
100
AcDbRegAppTableRecord
  2
ODA
 70
     0
  0
ENDTAB
  0
TABLE
  2
DIMSTYLE
  5
A
330
0
100
AcDbSymbolTable
 70
     1
100
AcDbDimStyleTable
  0
DIMSTYLE
105
27
330
A
100
AcDbSymbolTableRecord
100
AcDbDimStyleTableRecord
  2
Standard
 70
     0
178
     0
340
11
  0
ENDTAB
  0
TABLE
  2
BLOCK_RECORD
  5
1
330
0
100
AcDbSymbolTable
 70
     1
  0
BLOCK_RECORD
  5
1F
330
1
100
AcDbSymbolTableRecord
100
AcDbBlockTableRecord
  2
*Model_Space
340
22
 70
     0
280
     1
281
     0
  0
BLOCK_RECORD
  5
1B
330
1
100
AcDbSymbolTableRecord
100
AcDbBlockTableRecord
  2
*Paper_Space
340
1E
 70
     0
280
     1
281
     0
  0
BLOCK_RECORD
  5
23
330
1
100
AcDbSymbolTableRecord
100
AcDbBlockTableRecord
  2
*Paper_Space0
340
26
 70
     0
280
     1
281
     0
  0
ENDTAB
  0
ENDSEC
  0
SECTION
  2
BLOCKS
  0
BLOCK
  5
20
330
1F
100
AcDbEntity
  8
0
100
AcDbBlockBegin
  2
*Model_Space
 70
     0
 10
0.0
 20
0.0
 30
0.0
  3
*Model_Space
  1

  0
ENDBLK
  5
21
330
1F
100
AcDbEntity
  8
0
100
AcDbBlockEnd
  0
BLOCK
  5
1C
330
1B
100
AcDbEntity
 67
     1
  8
0
100
AcDbBlockBegin
  2
*Paper_Space
 70
     0
 10
0.0
 20
0.0
 30
0.0
  3
*Paper_Space
  1

  0
ENDBLK
  5
1D
330
1B
100
AcDbEntity
 67
     1
  8
0
100
AcDbBlockEnd
  0
BLOCK
  5
24
330
23
100
AcDbEntity
  8
0
100
AcDbBlockBegin
  2
*Paper_Space0
 70
     0
 10
0.0
 20
0.0
 30
0.0
  3
*Paper_Space0
  1

  0
ENDBLK
  5
25
330
23
100
AcDbEntity
  8
0
100
AcDbBlockEnd
  0
ENDSEC
  0
SECTION
  2
ENTITIES
  0
SPLINE
  5
41
330
1F
100
AcDbEntity
  8
Layer 1
370
    50
100
AcDbSpline
210
0.0
220
0.0
230
1.0
 70
    11
 71
     3
 72
   212
 73
   208
 74
     0
 42
0.0000000001
 43
0.0000000001
 12
1.0
 22
0.0
 32
0.0
 13
1.0
 23
0.0
 33
0.0
 40
0.0
 40
0.0
 40
0.0
 40
0.0
 40
0.0188679245283019
 40
0.0188679245283019
 40
0.0188679245283019
 40
0.0188679245283019
 40
0.0377358490566038
 40
0.0377358490566038
 40
0.0377358490566038
 40
0.0377358490566038
 40
0.0566037735849057
 40
0.0566037735849057
 40
0.0566037735849057
 40
0.0566037735849057
 40
0.0754716981132075
 40
0.0754716981132075
 40
0.0754716981132075
 40
0.0754716981132075
 40
0.0943396226415094
 40
0.0943396226415094
 40
0.0943396226415094
 40
0.0943396226415094
 40
0.1132075471698113
 40
0.1132075471698113
 40
0.1132075471698113
 40
0.1132075471698113
 40
0.1320754716981132
 40
0.1320754716981132
 40
0.1320754716981132
 40
0.1320754716981132
 40
0.1509433962264151
 40
0.1509433962264151
 40
0.1509433962264151
 40
0.1509433962264151
 40
0.169811320754717
 40
0.169811320754717
 40
0.169811320754717
 40
0.169811320754717
 40
0.1886792452830189
 40
0.1886792452830189
 40
0.1886792452830189
 40
0.1886792452830189
 40
0.2075471698113208
 40
0.2075471698113208
 40
0.2075471698113208
 40
0.2075471698113208
 40
0.2264150943396226
 40
0.2264150943396226
 40
0.2264150943396226
 40
0.2264150943396226
 40
0.2452830188679245
 40
0.2452830188679245
 40
0.2452830188679245
 40
0.2452830188679245
 40
0.2641509433962264
 40
0.2641509433962264
 40
0.2641509433962264
 40
0.2641509433962264
 40
0.2830188679245283
 40
0.2830188679245283
 40
0.2830188679245283
 40
0.2830188679245283
 40
0.3018867924528302
 40
0.3018867924528302
 40
0.3018867924528302
 40
0.3018867924528302
 40
0.3207547169811321
 40
0.3207547169811321
 40
0.3207547169811321
 40
0.3207547169811321
 40
0.3396226415094339
 40
0.3396226415094339
 40
0.3396226415094339
 40
0.3396226415094339
 40
0.3584905660377358
 40
0.3584905660377358
 40
0.3584905660377358
 40
0.3584905660377358
 40
0.3773584905660378
 40
0.3773584905660378
 40
0.3773584905660378
 40
0.3773584905660378
 40
0.3962264150943396
 40
0.3962264150943396
 40
0.3962264150943396
 40
0.3962264150943396
 40
0.4150943396226415
 40
0.4150943396226415
 40
0.4150943396226415
 40
0.4150943396226415
 40
0.4339622641509434
 40
0.4339622641509434
 40
0.4339622641509434
 40
0.4339622641509434
 40
0.4528301886792453
 40
0.4528301886792453
 40
0.4528301886792453
 40
0.4528301886792453
 40
0.4716981132075472
 40
0.4716981132075472
 40
0.4716981132075472
 40
0.4716981132075472
 40
0.4905660377358491
 40
0.4905660377358491
 40
0.4905660377358491
 40
0.4905660377358491
 40
0.5094339622641509
 40
0.5094339622641509
 40
0.5094339622641509
 40
0.5094339622641509
 40
0.5283018867924528
 40
0.5283018867924528
 40
0.5283018867924528
 40
0.5283018867924528
 40
0.5471698113207547
 40
0.5471698113207547
 40
0.5471698113207547
 40
0.5471698113207547
 40
0.5660377358490566
 40
0.5660377358490566
 40
0.5660377358490566
 40
0.5660377358490566
 40
0.5849056603773585
 40
0.5849056603773585
 40
0.5849056603773585
 40
0.5849056603773585
 40
0.6037735849056604
 40
0.6037735849056604
 40
0.6037735849056604
 40
0.6037735849056604
 40
0.6226415094339622
 40
0.6226415094339622
 40
0.6226415094339622
 40
0.6226415094339622
 40
0.6415094339622641
 40
0.6415094339622641
 40
0.6415094339622641
 40
0.6415094339622641
 40
0.660377358490566
 40
0.660377358490566
 40
0.660377358490566
 40
0.660377358490566
 40
0.6792452830188679
 40
0.6792452830188679
 40
0.6792452830188679
 40
0.6792452830188679
 40
0.6981132075471698
 40
0.6981132075471698
 40
0.6981132075471698
 40
0.6981132075471698
 40
0.7169811320754716
 40
0.7169811320754716
 40
0.7169811320754716
 40
0.7169811320754716
 40
0.7358490566037735
 40
0.7358490566037735
 40
0.7358490566037735
 40
0.7358490566037735
 40
0.7547169811320755
 40
0.7547169811320755
 40
0.7547169811320755
 40
0.7547169811320755
 40
0.7735849056603774
 40
0.7735849056603774
 40
0.7735849056603774
 40
0.7735849056603774
 40
0.7924528301886793
 40
0.7924528301886793
 40
0.7924528301886793
 40
0.7924528301886793
 40
0.8113207547169812
 40
0.8113207547169812
 40
0.8113207547169812
 40
0.8113207547169812
 40
0.8301886792452831
 40
0.8301886792452831
 40
0.8301886792452831
 40
0.8301886792452831
 40
0.8490566037735849
 40
0.8490566037735849
 40
0.8490566037735849
 40
0.8490566037735849
 40
0.8679245283018868
 40
0.8679245283018868
 40
0.8679245283018868
 40
0.8679245283018868
 40
0.8867924528301887
 40
0.8867924528301887
 40
0.8867924528301887
 40
0.8867924528301887
 40
0.9056603773584906
 40
0.9056603773584906
 40
0.9056603773584906
 40
0.9056603773584906
 40
0.9245283018867925
 40
0.9245283018867925
 40
0.9245283018867925
 40
0.9245283018867925
 40
0.9433962264150944
 40
0.9433962264150944
 40
0.9433962264150944
 40
0.9433962264150944
 40
0.9622641509433962
 40
0.9622641509433962
 40
0.9622641509433962
 40
0.9622641509433962
 40
1.0
 40
1.0
 40
1.0
 40
1.0
 10
1.79369
 20
-4.44114
 30
0.0
 10
1.79369
 20
-4.44114
 30
0.0
 10
1.85451
 20
-4.42553
 30
0.0
 10
1.85451
 20
-4.42553
 30
0.0
 10
1.85451
 20
-4.42553
 30
0.0
 10
1.85451
 20
-4.42553
 30
0.0
 10
1.91289
 20
-4.40241
 30
0.0
 10
1.91289
 20
-4.40241
 30
0.0
 10
1.91289
 20
-4.40241
 30
0.0
 10
1.91289
 20
-4.40241
 30
0.0
 10
1.96791
 20
-4.37216
 30
0.0
 10
1.96791
 20
-4.37216
 30
0.0
 10
1.96791
 20
-4.37216
 30
0.0
 10
1.96791
 20
-4.37216
 30
0.0
 10
2.01871
 20
-4.33526
 30
0.0
 10
2.01871
 20
-4.33526
 30
0.0
 10
2.01871
 20
-4.33526
 30
0.0
 10
2.01871
 20
-4.33526
 30
0.0
 10
2.06448
 20
-4.29227
 30
0.0
 10
2.06448
 20
-4.29227
 30
0.0
 10
2.06448
 20
-4.29227
 30
0.0
 10
2.06448
 20
-4.29227
 30
0.0
 10
2.10451
 20
-4.24389
 30
0.0
 10
2.10451
 20
-4.24389
 30
0.0
 10
2.10451
 20
-4.24389
 30
0.0
 10
2.10451
 20
-4.24389
 30
0.0
 10
2.13815
 20
-4.19088
 30
0.0
 10
2.13815
 20
-4.19088
 30
0.0
 10
2.13815
 20
-4.19088
 30
0.0
 10
2.13815
 20
-4.19088
 30
0.0
 10
2.16489
 20
-4.13406
 30
0.0
 10
2.16489
 20
-4.13406
 30
0.0
 10
2.16489
 20
-4.13406
 30
0.0
 10
2.16489
 20
-4.13406
 30
0.0
 10
2.18429
 20
-4.07434
 30
0.0
 10
2.18429
 20
-4.07434
 30
0.0
 10
2.18429
 20
-4.07434
 30
0.0
 10
2.18429
 20
-4.07434
 30
0.0
 10
2.19606
 20
-4.01267
 30
0.0
 10
2.19606
 20
-4.01267
 30
0.0
 10
2.19606
 20
-4.01267
 30
0.0
 10
2.19606
 20
-4.01267
 30
0.0
 10
2.2
 20
-3.95
 30
0.0
 10
2.2
 20
-3.95
 30
0.0
 10
2.2
 20
-3.95
 30
0.0
 10
2.2
 20
-3.95
 30
0.0
 10
2.2
 20
3.95
 30
0.0
 10
2.2
 20
3.95
 30
0.0
 10
2.2
 20
3.95
 30
0.0
 10
2.2
 20
3.95
 30
0.0
 10
2.19606
 20
4.0127
 30
0.0
 10
2.19606
 20
4.0127
 30
0.0
 10
2.19606
 20
4.0127
 30
0.0
 10
2.19606
 20
4.0127
 30
0.0
 10
2.18429
 20
4.0743
 30
0.0
 10
2.18429
 20
4.0743
 30
0.0
 10
2.18429
 20
4.0743
 30
0.0
 10
2.18429
 20
4.0743
 30
0.0
 10
2.16489
 20
4.1341
 30
0.0
 10
2.16489
 20
4.1341
 30
0.0
 10
2.16489
 20
4.1341
 30
0.0
 10
2.16489
 20
4.1341
 30
0.0
 10
2.13815
 20
4.1909
 30
0.0
 10
2.13815
 20
4.1909
 30
0.0
 10
2.13815
 20
4.1909
 30
0.0
 10
2.13815
 20
4.1909
 30
0.0
 10
2.10451
 20
4.2439
 30
0.0
 10
2.10451
 20
4.2439
 30
0.0
 10
2.10451
 20
4.2439
 30
0.0
 10
2.10451
 20
4.2439
 30
0.0
 10
2.06448
 20
4.2923
 30
0.0
 10
2.06448
 20
4.2923
 30
0.0
 10
2.06448
 20
4.2923
 30
0.0
 10
2.06448
 20
4.2923
 30
0.0
 10
2.01871
 20
4.3353
 30
0.0
 10
2.01871
 20
4.3353
 30
0.0
 10
2.01871
 20
4.3353
 30
0.0
 10
2.01871
 20
4.3353
 30
0.0
 10
1.96791
 20
4.3722
 30
0.0
 10
1.96791
 20
4.3722
 30
0.0
 10
1.96791
 20
4.3722
 30
0.0
 10
1.96791
 20
4.3722
 30
0.0
 10
1.91289
 20
4.4024
 30
0.0
 10
1.91289
 20
4.4024
 30
0.0
 10
1.91289
 20
4.4024
 30
0.0
 10
1.91289
 20
4.4024
 30
0.0
 10
1.85451
 20
4.4255
 30
0.0
 10
1.85451
 20
4.4255
 30
0.0
 10
1.85451
 20
4.4255
 30
0.0
 10
1.85451
 20
4.4255
 30
0.0
 10
1.79369
 20
4.4411
 30
0.0
 10
1.79369
 20
4.4411
 30
0.0
 10
1.79369
 20
4.4411
 30
0.0
 10
1.79369
 20
4.4411
 30
0.0
 10
1.73139
 20
4.449
 30
0.0
 10
1.73139
 20
4.449
 30
0.0
 10
1.73139
 20
4.449
 30
0.0
 10
1.73139
 20
4.449
 30
0.0
 10
-1.73139
 20
4.449
 30
0.0
 10
-1.73139
 20
4.449
 30
0.0
 10
-1.73139
 20
4.449
 30
0.0
 10
-1.73139
 20
4.449
 30
0.0
 10
-1.79369
 20
4.4411
 30
0.0
 10
-1.79369
 20
4.4411
 30
0.0
 10
-1.79369
 20
4.4411
 30
0.0
 10
-1.79369
 20
4.4411
 30
0.0
 10
-1.85451
 20
4.4255
 30
0.0
 10
-1.85451
 20
4.4255
 30
0.0
 10
-1.85451
 20
4.4255
 30
0.0
 10
-1.85451
 20
4.4255
 30
0.0
 10
-1.91289
 20
4.4024
 30
0.0
 10
-1.91289
 20
4.4024
 30
0.0
 10
-1.91289
 20
4.4024
 30
0.0
 10
-1.91289
 20
4.4024
 30
0.0
 10
-1.96791
 20
4.3722
 30
0.0
 10
-1.96791
 20
4.3722
 30
0.0
 10
-1.96791
 20
4.3722
 30
0.0
 10
-1.96791
 20
4.3722
 30
0.0
 10
-2.01871
 20
4.3353
 30
0.0
 10
-2.01871
 20
4.3353
 30
0.0
 10
-2.01871
 20
4.3353
 30
0.0
 10
-2.01871
 20
4.3353
 30
0.0
 10
-2.06448
 20
4.2923
 30
0.0
 10
-2.06448
 20
4.2923
 30
0.0
 10
-2.06448
 20
4.2923
 30
0.0
 10
-2.06448
 20
4.2923
 30
0.0
 10
-2.10451
 20
4.2439
 30
0.0
 10
-2.10451
 20
4.2439
 30
0.0
 10
-2.10451
 20
4.2439
 30
0.0
 10
-2.10451
 20
4.2439
 30
0.0
 10
-2.13815
 20
4.1909
 30
0.0
 10
-2.13815
 20
4.1909
 30
0.0
 10
-2.13815
 20
4.1909
 30
0.0
 10
-2.13815
 20
4.1909
 30
0.0
 10
-2.16489
 20
4.1341
 30
0.0
 10
-2.16489
 20
4.1341
 30
0.0
 10
-2.16489
 20
4.1341
 30
0.0
 10
-2.16489
 20
4.1341
 30
0.0
 10
-2.18429
 20
4.0743
 30
0.0
 10
-2.18429
 20
4.0743
 30
0.0
 10
-2.18429
 20
4.0743
 30
0.0
 10
-2.18429
 20
4.0743
 30
0.0
 10
-2.19606
 20
4.0127
 30
0.0
 10
-2.19606
 20
4.0127
 30
0.0
 10
-2.19606
 20
4.0127
 30
0.0
 10
-2.19606
 20
4.0127
 30
0.0
 10
-2.2
 20
3.95
 30
0.0
 10
-2.2
 20
3.95
 30
0.0
 10
-2.2
 20
3.95
 30
0.0
 10
-2.2
 20
3.95
 30
0.0
 10
-2.2
 20
-3.95
 30
0.0
 10
-2.2
 20
-3.95
 30
0.0
 10
-2.2
 20
-3.95
 30
0.0
 10
-2.2
 20
-3.95
 30
0.0
 10
-2.19606
 20
-4.01267
 30
0.0
 10
-2.19606
 20
-4.01267
 30
0.0
 10
-2.19606
 20
-4.01267
 30
0.0
 10
-2.19606
 20
-4.01267
 30
0.0
 10
-2.18429
 20
-4.07434
 30
0.0
 10
-2.18429
 20
-4.07434
 30
0.0
 10
-2.18429
 20
-4.07434
 30
0.0
 10
-2.18429
 20
-4.07434
 30
0.0
 10
-2.16489
 20
-4.13406
 30
0.0
 10
-2.16489
 20
-4.13406
 30
0.0
 10
-2.16489
 20
-4.13406
 30
0.0
 10
-2.16489
 20
-4.13406
 30
0.0
 10
-2.13815
 20
-4.19088
 30
0.0
 10
-2.13815
 20
-4.19088
 30
0.0
 10
-2.13815
 20
-4.19088
 30
0.0
 10
-2.13815
 20
-4.19088
 30
0.0
 10
-2.10451
 20
-4.24389
 30
0.0
 10
-2.10451
 20
-4.24389
 30
0.0
 10
-2.10451
 20
-4.24389
 30
0.0
 10
-2.10451
 20
-4.24389
 30
0.0
 10
-2.06448
 20
-4.29227
 30
0.0
 10
-2.06448
 20
-4.29227
 30
0.0
 10
-2.06448
 20
-4.29227
 30
0.0
 10
-2.06448
 20
-4.29227
 30
0.0
 10
-2.01871
 20
-4.33526
 30
0.0
 10
-2.01871
 20
-4.33526
 30
0.0
 10
-2.01871
 20
-4.33526
 30
0.0
 10
-2.01871
 20
-4.33526
 30
0.0
 10
-1.96791
 20
-4.37216
 30
0.0
 10
-1.96791
 20
-4.37216
 30
0.0
 10
-1.96791
 20
-4.37216
 30
0.0
 10
-1.96791
 20
-4.37216
 30
0.0
 10
-1.91289
 20
-4.40241
 30
0.0
 10
-1.91289
 20
-4.40241
 30
0.0
 10
-1.91289
 20
-4.40241
 30
0.0
 10
-1.91289
 20
-4.40241
 30
0.0
 10
-1.85451
 20
-4.42553
 30
0.0
 10
-1.85451
 20
-4.42553
 30
0.0
 10
-1.85451
 20
-4.42553
 30
0.0
 10
-1.85451
 20
-4.42553
 30
0.0
 10
-1.79369
 20
-4.44114
 30
0.0
 10
-1.79369
 20
-4.44114
 30
0.0
 10
-1.79369
 20
-4.44114
 30
0.0
 10
-1.79369
 20
-4.44114
 30
0.0
 10
-1.73139
 20
-4.44901
 30
0.0
 10
-1.73139
 20
-4.44901
 30
0.0
 10
-1.73139
 20
-4.44901
 30
0.0
 10
-1.73139
 20
-4.44901
 30
0.0
 10
1.73139
 20
-4.44901
 30
0.0
 10
1.73139
 20
-4.44901
 30
0.0
 10
1.73139
 20
-4.44901
 30
0.0
 10
1.73139
 20
-4.44901
 30
0.0
 10
1.79369
 20
-4.44114
 30
0.0
 10
1.79369
 20
-4.44114
 30
0.0
  0
SPLINE
  5
42
330
1F
100
AcDbEntity
  8
Layer 1
370
    50
100
AcDbSpline
210
0.0
220
0.0
230
1.0
 70
    11
 71
     3
 72
   204
 73
   200
 74
     0
 42
0.0000000001
 43
0.0000000001
 12
1.0
 22
0.0
 32
0.0
 13
1.0
 23
0.0
 33
0.0
 40
0.0
 40
0.0
 40
0.0
 40
0.0
 40
0.0196078431372549
 40
0.0196078431372549
 40
0.0196078431372549
 40
0.0196078431372549
 40
0.0392156862745098
 40
0.0392156862745098
 40
0.0392156862745098
 40
0.0392156862745098
 40
0.0588235294117647
 40
0.0588235294117647
 40
0.0588235294117647
 40
0.0588235294117647
 40
0.0784313725490196
 40
0.0784313725490196
 40
0.0784313725490196
 40
0.0784313725490196
 40
0.0980392156862745
 40
0.0980392156862745
 40
0.0980392156862745
 40
0.0980392156862745
 40
0.1176470588235294
 40
0.1176470588235294
 40
0.1176470588235294
 40
0.1176470588235294
 40
0.1372549019607843
 40
0.1372549019607843
 40
0.1372549019607843
 40
0.1372549019607843
 40
0.1568627450980392
 40
0.1568627450980392
 40
0.1568627450980392
 40
0.1568627450980392
 40
0.1764705882352941
 40
0.1764705882352941
 40
0.1764705882352941
 40
0.1764705882352941
 40
0.196078431372549
 40
0.196078431372549
 40
0.196078431372549
 40
0.196078431372549
 40
0.2156862745098039
 40
0.2156862745098039
 40
0.2156862745098039
 40
0.2156862745098039
 40
0.2352941176470588
 40
0.2352941176470588
 40
0.2352941176470588
 40
0.2352941176470588
 40
0.2549019607843137
 40
0.2549019607843137
 40
0.2549019607843137
 40
0.2549019607843137
 40
0.2745098039215687
 40
0.2745098039215687
 40
0.2745098039215687
 40
0.2745098039215687
 40
0.2941176470588235
 40
0.2941176470588235
 40
0.2941176470588235
 40
0.2941176470588235
 40
0.3137254901960784
 40
0.3137254901960784
 40
0.3137254901960784
 40
0.3137254901960784
 40
0.3333333333333333
 40
0.3333333333333333
 40
0.3333333333333333
 40
0.3333333333333333
 40
0.3529411764705883
 40
0.3529411764705883
 40
0.3529411764705883
 40
0.3529411764705883
 40
0.3725490196078431
 40
0.3725490196078431
 40
0.3725490196078431
 40
0.3725490196078431
 40
0.392156862745098
 40
0.392156862745098
 40
0.392156862745098
 40
0.392156862745098
 40
0.4117647058823529
 40
0.4117647058823529
 40
0.4117647058823529
 40
0.4117647058823529
 40
0.4313725490196079
 40
0.4313725490196079
 40
0.4313725490196079
 40
0.4313725490196079
 40
0.4509803921568628
 40
0.4509803921568628
 40
0.4509803921568628
 40
0.4509803921568628
 40
0.4705882352941176
 40
0.4705882352941176
 40
0.4705882352941176
 40
0.4705882352941176
 40
0.4901960784313725
 40
0.4901960784313725
 40
0.4901960784313725
 40
0.4901960784313725
 40
0.5098039215686274
 40
0.5098039215686274
 40
0.5098039215686274
 40
0.5098039215686274
 40
0.5294117647058824
 40
0.5294117647058824
 40
0.5294117647058824
 40
0.5294117647058824
 40
0.5490196078431373
 40
0.5490196078431373
 40
0.5490196078431373
 40
0.5490196078431373
 40
0.5686274509803921
 40
0.5686274509803921
 40
0.5686274509803921
 40
0.5686274509803921
 40
0.5882352941176471
 40
0.5882352941176471
 40
0.5882352941176471
 40
0.5882352941176471
 40
0.6078431372549019
 40
0.6078431372549019
 40
0.6078431372549019
 40
0.6078431372549019
 40
0.6274509803921569
 40
0.6274509803921569
 40
0.6274509803921569
 40
0.6274509803921569
 40
0.6470588235294118
 40
0.6470588235294118
 40
0.6470588235294118
 40
0.6470588235294118
 40
0.6666666666666666
 40
0.6666666666666666
 40
0.6666666666666666
 40
0.6666666666666666
 40
0.6862745098039216
 40
0.6862745098039216
 40
0.6862745098039216
 40
0.6862745098039216
 40
0.7058823529411765
 40
0.7058823529411765
 40
0.7058823529411765
 40
0.7058823529411765
 40
0.7254901960784313
 40
0.7254901960784313
 40
0.7254901960784313
 40
0.7254901960784313
 40
0.7450980392156863
 40
0.7450980392156863
 40
0.7450980392156863
 40
0.7450980392156863
 40
0.7647058823529411
 40
0.7647058823529411
 40
0.7647058823529411
 40
0.7647058823529411
 40
0.7843137254901961
 40
0.7843137254901961
 40
0.7843137254901961
 40
0.7843137254901961
 40
0.803921568627451
 40
0.803921568627451
 40
0.803921568627451
 40
0.803921568627451
 40
0.8235294117647058
 40
0.8235294117647058
 40
0.8235294117647058
 40
0.8235294117647058
 40
0.8431372549019608
 40
0.8431372549019608
 40
0.8431372549019608
 40
0.8431372549019608
 40
0.8627450980392157
 40
0.8627450980392157
 40
0.8627450980392157
 40
0.8627450980392157
 40
0.8823529411764706
 40
0.8823529411764706
 40
0.8823529411764706
 40
0.8823529411764706
 40
0.9019607843137255
 40
0.9019607843137255
 40
0.9019607843137255
 40
0.9019607843137255
 40
0.9215686274509803
 40
0.9215686274509803
 40
0.9215686274509803
 40
0.9215686274509803
 40
0.9411764705882353
 40
0.9411764705882353
 40
0.9411764705882353
 40
0.9411764705882353
 40
0.9607843137254902
 40
0.9607843137254902
 40
0.9607843137254902
 40
0.9607843137254902
 40
1.0
 40
1.0
 40
1.0
 40
1.0
 10
1.48116
 20
3.4506
 30
0.0
 10
1.48116
 20
3.4506
 30
0.0
 10
1.44379
 20
3.4553
 30
0.0
 10
1.44379
 20
3.4553
 30
0.0
 10
1.44379
 20
3.4553
 30
0.0
 10
1.44379
 20
3.4553
 30
0.0
 10
1.40729
 20
3.4647
 30
0.0
 10
1.40729
 20
3.4647
 30
0.0
 10
1.40729
 20
3.4647
 30
0.0
 10
1.40729
 20
3.4647
 30
0.0
 10
1.37227
 20
3.4786
 30
0.0
 10
1.37227
 20
3.4786
 30
0.0
 10
1.37227
 20
3.4786
 30
0.0
 10
1.37227
 20
3.4786
 30
0.0
 10
1.33925
 20
3.4967
 30
0.0
 10
1.33925
 20
3.4967
 30
0.0
 10
1.33925
 20
3.4967
 30
0.0
 10
1.33925
 20
3.4967
 30
0.0
 10
1.30877
 20
3.5188
 30
0.0
 10
1.30877
 20
3.5188
 30
0.0
 10
1.30877
 20
3.5188
 30
0.0
 10
1.30877
 20
3.5188
 30
0.0
 10
1.28131
 20
3.5446
 30
0.0
 10
1.28131
 20
3.5446
 30
0.0
 10
1.28131
 20
3.5446
 30
0.0
 10
1.28131
 20
3.5446
 30
0.0
 10
1.25729
 20
3.5737
 30
0.0
 10
1.25729
 20
3.5737
 30
0.0
 10
1.25729
 20
3.5737
 30
0.0
 10
1.25729
 20
3.5737
 30
0.0
 10
1.23711
 20
3.6055
 30
0.0
 10
1.23711
 20
3.6055
 30
0.0
 10
1.23711
 20
3.6055
 30
0.0
 10
1.23711
 20
3.6055
 30
0.0
 10
1.22107
 20
3.6396
 30
0.0
 10
1.22107
 20
3.6396
 30
0.0
 10
1.22107
 20
3.6396
 30
0.0
 10
1.22107
 20
3.6396
 30
0.0
 10
1.20942
 20
3.6754
 30
0.0
 10
1.20942
 20
3.6754
 30
0.0
 10
1.20942
 20
3.6754
 30
0.0
 10
1.20942
 20
3.6754
 30
0.0
 10
1.20237
 20
3.7124
 30
0.0
 10
1.20237
 20
3.7124
 30
0.0
 10
1.20237
 20
3.7124
 30
0.0
 10
1.20237
 20
3.7124
 30
0.0
 10
1.2
 20
3.75
 30
0.0
 10
1.2
 20
3.75
 30
0.0
 10
1.2
 20
3.75
 30
0.0
 10
1.2
 20
3.75
 30
0.0
 10
1.20237
 20
3.7876
 30
0.0
 10
1.20237
 20
3.7876
 30
0.0
 10
1.20237
 20
3.7876
 30
0.0
 10
1.20237
 20
3.7876
 30
0.0
 10
1.20942
 20
3.8246
 30
0.0
 10
1.20942
 20
3.8246
 30
0.0
 10
1.20942
 20
3.8246
 30
0.0
 10
1.20942
 20
3.8246
 30
0.0
 10
1.22107
 20
3.8604
 30
0.0
 10
1.22107
 20
3.8604
 30
0.0
 10
1.22107
 20
3.8604
 30
0.0
 10
1.22107
 20
3.8604
 30
0.0
 10
1.23711
 20
3.8945
 30
0.0
 10
1.23711
 20
3.8945
 30
0.0
 10
1.23711
 20
3.8945
 30
0.0
 10
1.23711
 20
3.8945
 30
0.0
 10
1.25729
 20
3.9263
 30
0.0
 10
1.25729
 20
3.9263
 30
0.0
 10
1.25729
 20
3.9263
 30
0.0
 10
1.25729
 20
3.9263
 30
0.0
 10
1.28131
 20
3.9554
 30
0.0
 10
1.28131
 20
3.9554
 30
0.0
 10
1.28131
 20
3.9554
 30
0.0
 10
1.28131
 20
3.9554
 30
0.0
 10
1.30877
 20
3.9812
 30
0.0
 10
1.30877
 20
3.9812
 30
0.0
 10
1.30877
 20
3.9812
 30
0.0
 10
1.30877
 20
3.9812
 30
0.0
 10
1.33925
 20
4.0033
 30
0.0
 10
1.33925
 20
4.0033
 30
0.0
 10
1.33925
 20
4.0033
 30
0.0
 10
1.33925
 20
4.0033
 30
0.0
 10
1.37227
 20
4.0214
 30
0.0
 10
1.37227
 20
4.0214
 30
0.0
 10
1.37227
 20
4.0214
 30
0.0
 10
1.37227
 20
4.0214
 30
0.0
 10
1.40729
 20
4.0353
 30
0.0
 10
1.40729
 20
4.0353
 30
0.0
 10
1.40729
 20
4.0353
 30
0.0
 10
1.40729
 20
4.0353
 30
0.0
 10
1.44379
 20
4.0447
 30
0.0
 10
1.44379
 20
4.0447
 30
0.0
 10
1.44379
 20
4.0447
 30
0.0
 10
1.44379
 20
4.0447
 30
0.0
 10
1.48116
 20
4.0494
 30
0.0
 10
1.48116
 20
4.0494
 30
0.0
 10
1.48116
 20
4.0494
 30
0.0
 10
1.48116
 20
4.0494
 30
0.0
 10
1.51884
 20
4.0494
 30
0.0
 10
1.51884
 20
4.0494
 30
0.0
 10
1.51884
 20
4.0494
 30
0.0
 10
1.51884
 20
4.0494
 30
0.0
 10
1.55621
 20
4.0447
 30
0.0
 10
1.55621
 20
4.0447
 30
0.0
 10
1.55621
 20
4.0447
 30
0.0
 10
1.55621
 20
4.0447
 30
0.0
 10
1.5927
 20
4.0353
 30
0.0
 10
1.5927
 20
4.0353
 30
0.0
 10
1.5927
 20
4.0353
 30
0.0
 10
1.5927
 20
4.0353
 30
0.0
 10
1.62773
 20
4.0214
 30
0.0
 10
1.62773
 20
4.0214
 30
0.0
 10
1.62773
 20
4.0214
 30
0.0
 10
1.62773
 20
4.0214
 30
0.0
 10
1.66075
 20
4.0033
 30
0.0
 10
1.66075
 20
4.0033
 30
0.0
 10
1.66075
 20
4.0033
 30
0.0
 10
1.66075
 20
4.0033
 30
0.0
 10
1.69123
 20
3.9812
 30
0.0
 10
1.69123
 20
3.9812
 30
0.0
 10
1.69123
 20
3.9812
 30
0.0
 10
1.69123
 20
3.9812
 30
0.0
 10
1.71869
 20
3.9554
 30
0.0
 10
1.71869
 20
3.9554
 30
0.0
 10
1.71869
 20
3.9554
 30
0.0
 10
1.71869
 20
3.9554
 30
0.0
 10
1.7427
 20
3.9263
 30
0.0
 10
1.7427
 20
3.9263
 30
0.0
 10
1.7427
 20
3.9263
 30
0.0
 10
1.7427
 20
3.9263
 30
0.0
 10
1.76289
 20
3.8945
 30
0.0
 10
1.76289
 20
3.8945
 30
0.0
 10
1.76289
 20
3.8945
 30
0.0
 10
1.76289
 20
3.8945
 30
0.0
 10
1.77893
 20
3.8604
 30
0.0
 10
1.77893
 20
3.8604
 30
0.0
 10
1.77893
 20
3.8604
 30
0.0
 10
1.77893
 20
3.8604
 30
0.0
 10
1.79057
 20
3.8246
 30
0.0
 10
1.79057
 20
3.8246
 30
0.0
 10
1.79057
 20
3.8246
 30
0.0
 10
1.79057
 20
3.8246
 30
0.0
 10
1.79763
 20
3.7876
 30
0.0
 10
1.79763
 20
3.7876
 30
0.0
 10
1.79763
 20
3.7876
 30
0.0
 10
1.79763
 20
3.7876
 30
0.0
 10
1.8
 20
3.75
 30
0.0
 10
1.8
 20
3.75
 30
0.0
 10
1.8
 20
3.75
 30
0.0
 10
1.8
 20
3.75
 30
0.0
 10
1.79763
 20
3.7124
 30
0.0
 10
1.79763
 20
3.7124
 30
0.0
 10
1.79763
 20
3.7124
 30
0.0
 10
1.79763
 20
3.7124
 30
0.0
 10
1.79057
 20
3.6754
 30
0.0
 10
1.79057
 20
3.6754
 30
0.0
 10
1.79057
 20
3.6754
 30
0.0
 10
1.79057
 20
3.6754
 30
0.0
 10
1.77893
 20
3.6396
 30
0.0
 10
1.77893
 20
3.6396
 30
0.0
 10
1.77893
 20
3.6396
 30
0.0
 10
1.77893
 20
3.6396
 30
0.0
 10
1.76289
 20
3.6055
 30
0.0
 10
1.76289
 20
3.6055
 30
0.0
 10
1.76289
 20
3.6055
 30
0.0
 10
1.76289
 20
3.6055
 30
0.0
 10
1.7427
 20
3.5737
 30
0.0
 10
1.7427
 20
3.5737
 30
0.0
 10
1.7427
 20
3.5737
 30
0.0
 10
1.7427
 20
3.5737
 30
0.0
 10
1.71869
 20
3.5446
 30
0.0
 10
1.71869
 20
3.5446
 30
0.0
 10
1.71869
 20
3.5446
 30
0.0
 10
1.71869
 20
3.5446
 30
0.0
 10
1.69123
 20
3.5188
 30
0.0
 10
1.69123
 20
3.5188
 30
0.0
 10
1.69123
 20
3.5188
 30
0.0
 10
1.69123
 20
3.5188
 30
0.0
 10
1.66075
 20
3.4967
 30
0.0
 10
1.66075
 20
3.4967
 30
0.0
 10
1.66075
 20
3.4967
 30
0.0
 10
1.66075
 20
3.4967
 30
0.0
 10
1.62773
 20
3.4786
 30
0.0
 10
1.62773
 20
3.4786
 30
0.0
 10
1.62773
 20
3.4786
 30
0.0
 10
1.62773
 20
3.4786
 30
0.0
 10
1.5927
 20
3.4647
 30
0.0
 10
1.5927
 20
3.4647
 30
0.0
 10
1.5927
 20
3.4647
 30
0.0
 10
1.5927
 20
3.4647
 30
0.0
 10
1.55621
 20
3.4553
 30
0.0
 10
1.55621
 20
3.4553
 30
0.0
 10
1.55621
 20
3.4553
 30
0.0
 10
1.55621
 20
3.4553
 30
0.0
 10
1.51884
 20
3.4506
 30
0.0
 10
1.51884
 20
3.4506
 30
0.0
 10
1.51884
 20
3.4506
 30
0.0
 10
1.51884
 20
3.4506
 30
0.0
 10
1.48116
 20
3.4506
 30
0.0
 10
1.48116
 20
3.4506
 30
0.0
  0
SPLINE
  5
43
330
1F
100
AcDbEntity
  8
Layer 1
370
    50
100
AcDbSpline
210
0.0
220
0.0
230
1.0
 70
    11
 71
     3
 72
   204
 73
   200
 74
     0
 42
0.0000000001
 43
0.0000000001
 12
1.0
 22
0.0
 32
0.0
 13
1.0
 23
0.0
 33
0.0
 40
0.0
 40
0.0
 40
0.0
 40
0.0
 40
0.0196078431372549
 40
0.0196078431372549
 40
0.0196078431372549
 40
0.0196078431372549
 40
0.0392156862745098
 40
0.0392156862745098
 40
0.0392156862745098
 40
0.0392156862745098
 40
0.0588235294117647
 40
0.0588235294117647
 40
0.0588235294117647
 40
0.0588235294117647
 40
0.0784313725490196
 40
0.0784313725490196
 40
0.0784313725490196
 40
0.0784313725490196
 40
0.0980392156862745
 40
0.0980392156862745
 40
0.0980392156862745
 40
0.0980392156862745
 40
0.1176470588235294
 40
0.1176470588235294
 40
0.1176470588235294
 40
0.1176470588235294
 40
0.1372549019607843
 40
0.1372549019607843
 40
0.1372549019607843
 40
0.1372549019607843
 40
0.1568627450980392
 40
0.1568627450980392
 40
0.1568627450980392
 40
0.1568627450980392
 40
0.1764705882352941
 40
0.1764705882352941
 40
0.1764705882352941
 40
0.1764705882352941
 40
0.196078431372549
 40
0.196078431372549
 40
0.196078431372549
 40
0.196078431372549
 40
0.2156862745098039
 40
0.2156862745098039
 40
0.2156862745098039
 40
0.2156862745098039
 40
0.2352941176470588
 40
0.2352941176470588
 40
0.2352941176470588
 40
0.2352941176470588
 40
0.2549019607843137
 40
0.2549019607843137
 40
0.2549019607843137
 40
0.2549019607843137
 40
0.2745098039215687
 40
0.2745098039215687
 40
0.2745098039215687
 40
0.2745098039215687
 40
0.2941176470588235
 40
0.2941176470588235
 40
0.2941176470588235
 40
0.2941176470588235
 40
0.3137254901960784
 40
0.3137254901960784
 40
0.3137254901960784
 40
0.3137254901960784
 40
0.3333333333333333
 40
0.3333333333333333
 40
0.3333333333333333
 40
0.3333333333333333
 40
0.3529411764705883
 40
0.3529411764705883
 40
0.3529411764705883
 40
0.3529411764705883
 40
0.3725490196078431
 40
0.3725490196078431
 40
0.3725490196078431
 40
0.3725490196078431
 40
0.392156862745098
 40
0.392156862745098
 40
0.392156862745098
 40
0.392156862745098
 40
0.4117647058823529
 40
0.4117647058823529
 40
0.4117647058823529
 40
0.4117647058823529
 40
0.4313725490196079
 40
0.4313725490196079
 40
0.4313725490196079
 40
0.4313725490196079
 40
0.4509803921568628
 40
0.4509803921568628
 40
0.4509803921568628
 40
0.4509803921568628
 40
0.4705882352941176
 40
0.4705882352941176
 40
0.4705882352941176
 40
0.4705882352941176
 40
0.4901960784313725
 40
0.4901960784313725
 40
0.4901960784313725
 40
0.4901960784313725
 40
0.5098039215686274
 40
0.5098039215686274
 40
0.5098039215686274
 40
0.5098039215686274
 40
0.5294117647058824
 40
0.5294117647058824
 40
0.5294117647058824
 40
0.5294117647058824
 40
0.5490196078431373
 40
0.5490196078431373
 40
0.5490196078431373
 40
0.5490196078431373
 40
0.5686274509803921
 40
0.5686274509803921
 40
0.5686274509803921
 40
0.5686274509803921
 40
0.5882352941176471
 40
0.5882352941176471
 40
0.5882352941176471
 40
0.5882352941176471
 40
0.6078431372549019
 40
0.6078431372549019
 40
0.6078431372549019
 40
0.6078431372549019
 40
0.6274509803921569
 40
0.6274509803921569
 40
0.6274509803921569
 40
0.6274509803921569
 40
0.6470588235294118
 40
0.6470588235294118
 40
0.6470588235294118
 40
0.6470588235294118
 40
0.6666666666666666
 40
0.6666666666666666
 40
0.6666666666666666
 40
0.6666666666666666
 40
0.6862745098039216
 40
0.6862745098039216
 40
0.6862745098039216
 40
0.6862745098039216
 40
0.7058823529411765
 40
0.7058823529411765
 40
0.7058823529411765
 40
0.7058823529411765
 40
0.7254901960784313
 40
0.7254901960784313
 40
0.7254901960784313
 40
0.7254901960784313
 40
0.7450980392156863
 40
0.7450980392156863
 40
0.7450980392156863
 40
0.7450980392156863
 40
0.7647058823529411
 40
0.7647058823529411
 40
0.7647058823529411
 40
0.7647058823529411
 40
0.7843137254901961
 40
0.7843137254901961
 40
0.7843137254901961
 40
0.7843137254901961
 40
0.803921568627451
 40
0.803921568627451
 40
0.803921568627451
 40
0.803921568627451
 40
0.8235294117647058
 40
0.8235294117647058
 40
0.8235294117647058
 40
0.8235294117647058
 40
0.8431372549019608
 40
0.8431372549019608
 40
0.8431372549019608
 40
0.8431372549019608
 40
0.8627450980392157
 40
0.8627450980392157
 40
0.8627450980392157
 40
0.8627450980392157
 40
0.8823529411764706
 40
0.8823529411764706
 40
0.8823529411764706
 40
0.8823529411764706
 40
0.9019607843137255
 40
0.9019607843137255
 40
0.9019607843137255
 40
0.9019607843137255
 40
0.9215686274509803
 40
0.9215686274509803
 40
0.9215686274509803
 40
0.9215686274509803
 40
0.9411764705882353
 40
0.9411764705882353
 40
0.9411764705882353
 40
0.9411764705882353
 40
0.9607843137254902
 40
0.9607843137254902
 40
0.9607843137254902
 40
0.9607843137254902
 40
1.0
 40
1.0
 40
1.0
 40
1.0
 10
-1.51884
 20
3.4506
 30
0.0
 10
-1.51884
 20
3.4506
 30
0.0
 10
-1.55621
 20
3.4553
 30
0.0
 10
-1.55621
 20
3.4553
 30
0.0
 10
-1.55621
 20
3.4553
 30
0.0
 10
-1.55621
 20
3.4553
 30
0.0
 10
-1.5927
 20
3.4647
 30
0.0
 10
-1.5927
 20
3.4647
 30
0.0
 10
-1.5927
 20
3.4647
 30
0.0
 10
-1.5927
 20
3.4647
 30
0.0
 10
-1.62773
 20
3.4786
 30
0.0
 10
-1.62773
 20
3.4786
 30
0.0
 10
-1.62773
 20
3.4786
 30
0.0
 10
-1.62773
 20
3.4786
 30
0.0
 10
-1.66075
 20
3.4967
 30
0.0
 10
-1.66075
 20
3.4967
 30
0.0
 10
-1.66075
 20
3.4967
 30
0.0
 10
-1.66075
 20
3.4967
 30
0.0
 10
-1.69123
 20
3.5188
 30
0.0
 10
-1.69123
 20
3.5188
 30
0.0
 10
-1.69123
 20
3.5188
 30
0.0
 10
-1.69123
 20
3.5188
 30
0.0
 10
-1.71869
 20
3.5446
 30
0.0
 10
-1.71869
 20
3.5446
 30
0.0
 10
-1.71869
 20
3.5446
 30
0.0
 10
-1.71869
 20
3.5446
 30
0.0
 10
-1.7427
 20
3.5737
 30
0.0
 10
-1.7427
 20
3.5737
 30
0.0
 10
-1.7427
 20
3.5737
 30
0.0
 10
-1.7427
 20
3.5737
 30
0.0
 10
-1.76289
 20
3.6055
 30
0.0
 10
-1.76289
 20
3.6055
 30
0.0
 10
-1.76289
 20
3.6055
 30
0.0
 10
-1.76289
 20
3.6055
 30
0.0
 10
-1.77893
 20
3.6396
 30
0.0
 10
-1.77893
 20
3.6396
 30
0.0
 10
-1.77893
 20
3.6396
 30
0.0
 10
-1.77893
 20
3.6396
 30
0.0
 10
-1.79057
 20
3.6754
 30
0.0
 10
-1.79057
 20
3.6754
 30
0.0
 10
-1.79057
 20
3.6754
 30
0.0
 10
-1.79057
 20
3.6754
 30
0.0
 10
-1.79763
 20
3.7124
 30
0.0
 10
-1.79763
 20
3.7124
 30
0.0
 10
-1.79763
 20
3.7124
 30
0.0
 10
-1.79763
 20
3.7124
 30
0.0
 10
-1.8
 20
3.75
 30
0.0
 10
-1.8
 20
3.75
 30
0.0
 10
-1.8
 20
3.75
 30
0.0
 10
-1.8
 20
3.75
 30
0.0
 10
-1.79763
 20
3.7876
 30
0.0
 10
-1.79763
 20
3.7876
 30
0.0
 10
-1.79763
 20
3.7876
 30
0.0
 10
-1.79763
 20
3.7876
 30
0.0
 10
-1.79057
 20
3.8246
 30
0.0
 10
-1.79057
 20
3.8246
 30
0.0
 10
-1.79057
 20
3.8246
 30
0.0
 10
-1.79057
 20
3.8246
 30
0.0
 10
-1.77893
 20
3.8604
 30
0.0
 10
-1.77893
 20
3.8604
 30
0.0
 10
-1.77893
 20
3.8604
 30
0.0
 10
-1.77893
 20
3.8604
 30
0.0
 10
-1.76289
 20
3.8945
 30
0.0
 10
-1.76289
 20
3.8945
 30
0.0
 10
-1.76289
 20
3.8945
 30
0.0
 10
-1.76289
 20
3.8945
 30
0.0
 10
-1.7427
 20
3.9263
 30
0.0
 10
-1.7427
 20
3.9263
 30
0.0
 10
-1.7427
 20
3.9263
 30
0.0
 10
-1.7427
 20
3.9263
 30
0.0
 10
-1.71869
 20
3.9554
 30
0.0
 10
-1.71869
 20
3.9554
 30
0.0
 10
-1.71869
 20
3.9554
 30
0.0
 10
-1.71869
 20
3.9554
 30
0.0
 10
-1.69123
 20
3.9812
 30
0.0
 10
-1.69123
 20
3.9812
 30
0.0
 10
-1.69123
 20
3.9812
 30
0.0
 10
-1.69123
 20
3.9812
 30
0.0
 10
-1.66075
 20
4.0033
 30
0.0
 10
-1.66075
 20
4.0033
 30
0.0
 10
-1.66075
 20
4.0033
 30
0.0
 10
-1.66075
 20
4.0033
 30
0.0
 10
-1.62773
 20
4.0214
 30
0.0
 10
-1.62773
 20
4.0214
 30
0.0
 10
-1.62773
 20
4.0214
 30
0.0
 10
-1.62773
 20
4.0214
 30
0.0
 10
-1.5927
 20
4.0353
 30
0.0
 10
-1.5927
 20
4.0353
 30
0.0
 10
-1.5927
 20
4.0353
 30
0.0
 10
-1.5927
 20
4.0353
 30
0.0
 10
-1.55621
 20
4.0447
 30
0.0
 10
-1.55621
 20
4.0447
 30
0.0
 10
-1.55621
 20
4.0447
 30
0.0
 10
-1.55621
 20
4.0447
 30
0.0
 10
-1.51884
 20
4.0494
 30
0.0
 10
-1.51884
 20
4.0494
 30
0.0
 10
-1.51884
 20
4.0494
 30
0.0
 10
-1.51884
 20
4.0494
 30
0.0
 10
-1.48116
 20
4.0494
 30
0.0
 10
-1.48116
 20
4.0494
 30
0.0
 10
-1.48116
 20
4.0494
 30
0.0
 10
-1.48116
 20
4.0494
 30
0.0
 10
-1.44379
 20
4.0447
 30
0.0
 10
-1.44379
 20
4.0447
 30
0.0
 10
-1.44379
 20
4.0447
 30
0.0
 10
-1.44379
 20
4.0447
 30
0.0
 10
-1.40729
 20
4.0353
 30
0.0
 10
-1.40729
 20
4.0353
 30
0.0
 10
-1.40729
 20
4.0353
 30
0.0
 10
-1.40729
 20
4.0353
 30
0.0
 10
-1.37227
 20
4.0214
 30
0.0
 10
-1.37227
 20
4.0214
 30
0.0
 10
-1.37227
 20
4.0214
 30
0.0
 10
-1.37227
 20
4.0214
 30
0.0
 10
-1.33925
 20
4.0033
 30
0.0
 10
-1.33925
 20
4.0033
 30
0.0
 10
-1.33925
 20
4.0033
 30
0.0
 10
-1.33925
 20
4.0033
 30
0.0
 10
-1.30877
 20
3.9812
 30
0.0
 10
-1.30877
 20
3.9812
 30
0.0
 10
-1.30877
 20
3.9812
 30
0.0
 10
-1.30877
 20
3.9812
 30
0.0
 10
-1.28131
 20
3.9554
 30
0.0
 10
-1.28131
 20
3.9554
 30
0.0
 10
-1.28131
 20
3.9554
 30
0.0
 10
-1.28131
 20
3.9554
 30
0.0
 10
-1.25729
 20
3.9263
 30
0.0
 10
-1.25729
 20
3.9263
 30
0.0
 10
-1.25729
 20
3.9263
 30
0.0
 10
-1.25729
 20
3.9263
 30
0.0
 10
-1.23711
 20
3.8945
 30
0.0
 10
-1.23711
 20
3.8945
 30
0.0
 10
-1.23711
 20
3.8945
 30
0.0
 10
-1.23711
 20
3.8945
 30
0.0
 10
-1.22107
 20
3.8604
 30
0.0
 10
-1.22107
 20
3.8604
 30
0.0
 10
-1.22107
 20
3.8604
 30
0.0
 10
-1.22107
 20
3.8604
 30
0.0
 10
-1.20942
 20
3.8246
 30
0.0
 10
-1.20942
 20
3.8246
 30
0.0
 10
-1.20942
 20
3.8246
 30
0.0
 10
-1.20942
 20
3.8246
 30
0.0
 10
-1.20237
 20
3.7876
 30
0.0
 10
-1.20237
 20
3.7876
 30
0.0
 10
-1.20237
 20
3.7876
 30
0.0
 10
-1.20237
 20
3.7876
 30
0.0
 10
-1.2
 20
3.75
 30
0.0
 10
-1.2
 20
3.75
 30
0.0
 10
-1.2
 20
3.75
 30
0.0
 10
-1.2
 20
3.75
 30
0.0
 10
-1.20237
 20
3.7124
 30
0.0
 10
-1.20237
 20
3.7124
 30
0.0
 10
-1.20237
 20
3.7124
 30
0.0
 10
-1.20237
 20
3.7124
 30
0.0
 10
-1.20942
 20
3.6754
 30
0.0
 10
-1.20942
 20
3.6754
 30
0.0
 10
-1.20942
 20
3.6754
 30
0.0
 10
-1.20942
 20
3.6754
 30
0.0
 10
-1.22107
 20
3.6396
 30
0.0
 10
-1.22107
 20
3.6396
 30
0.0
 10
-1.22107
 20
3.6396
 30
0.0
 10
-1.22107
 20
3.6396
 30
0.0
 10
-1.23711
 20
3.6055
 30
0.0
 10
-1.23711
 20
3.6055
 30
0.0
 10
-1.23711
 20
3.6055
 30
0.0
 10
-1.23711
 20
3.6055
 30
0.0
 10
-1.25729
 20
3.5737
 30
0.0
 10
-1.25729
 20
3.5737
 30
0.0
 10
-1.25729
 20
3.5737
 30
0.0
 10
-1.25729
 20
3.5737
 30
0.0
 10
-1.28131
 20
3.5446
 30
0.0
 10
-1.28131
 20
3.5446
 30
0.0
 10
-1.28131
 20
3.5446
 30
0.0
 10
-1.28131
 20
3.5446
 30
0.0
 10
-1.30877
 20
3.5188
 30
0.0
 10
-1.30877
 20
3.5188
 30
0.0
 10
-1.30877
 20
3.5188
 30
0.0
 10
-1.30877
 20
3.5188
 30
0.0
 10
-1.33925
 20
3.4967
 30
0.0
 10
-1.33925
 20
3.4967
 30
0.0
 10
-1.33925
 20
3.4967
 30
0.0
 10
-1.33925
 20
3.4967
 30
0.0
 10
-1.37227
 20
3.4786
 30
0.0
 10
-1.37227
 20
3.4786
 30
0.0
 10
-1.37227
 20
3.4786
 30
0.0
 10
-1.37227
 20
3.4786
 30
0.0
 10
-1.40729
 20
3.4647
 30
0.0
 10
-1.40729
 20
3.4647
 30
0.0
 10
-1.40729
 20
3.4647
 30
0.0
 10
-1.40729
 20
3.4647
 30
0.0
 10
-1.44379
 20
3.4553
 30
0.0
 10
-1.44379
 20
3.4553
 30
0.0
 10
-1.44379
 20
3.4553
 30
0.0
 10
-1.44379
 20
3.4553
 30
0.0
 10
-1.48116
 20
3.4506
 30
0.0
 10
-1.48116
 20
3.4506
 30
0.0
 10
-1.48116
 20
3.4506
 30
0.0
 10
-1.48116
 20
3.4506
 30
0.0
 10
-1.51884
 20
3.4506
 30
0.0
 10
-1.51884
 20
3.4506
 30
0.0
  0
SPLINE
  5
44
330
1F
100
AcDbEntity
  8
Layer 1
370
    50
100
AcDbSpline
210
0.0
220
0.0
230
1.0
 70
    11
 71
     3
 72
   340
 73
   336
 74
     0
 42
0.0000000001
 43
0.0000000001
 12
1.0
 22
0.0
 32
0.0
 13
1.0
 23
0.0
 33
0.0
 40
0.0
 40
0.0
 40
0.0
 40
0.0
 40
0.0117647058823529
 40
0.0117647058823529
 40
0.0117647058823529
 40
0.0117647058823529
 40
0.0235294117647059
 40
0.0235294117647059
 40
0.0235294117647059
 40
0.0235294117647059
 40
0.0352941176470588
 40
0.0352941176470588
 40
0.0352941176470588
 40
0.0352941176470588
 40
0.0470588235294118
 40
0.0470588235294118
 40
0.0470588235294118
 40
0.0470588235294118
 40
0.0588235294117647
 40
0.0588235294117647
 40
0.0588235294117647
 40
0.0588235294117647
 40
0.0705882352941176
 40
0.0705882352941176
 40
0.0705882352941176
 40
0.0705882352941176
 40
0.0823529411764706
 40
0.0823529411764706
 40
0.0823529411764706
 40
0.0823529411764706
 40
0.0941176470588235
 40
0.0941176470588235
 40
0.0941176470588235
 40
0.0941176470588235
 40
0.1058823529411765
 40
0.1058823529411765
 40
0.1058823529411765
 40
0.1058823529411765
 40
0.1176470588235294
 40
0.1176470588235294
 40
0.1176470588235294
 40
0.1176470588235294
 40
0.1294117647058824
 40
0.1294117647058824
 40
0.1294117647058824
 40
0.1294117647058824
 40
0.1411764705882353
 40
0.1411764705882353
 40
0.1411764705882353
 40
0.1411764705882353
 40
0.1529411764705882
 40
0.1529411764705882
 40
0.1529411764705882
 40
0.1529411764705882
 40
0.1647058823529412
 40
0.1647058823529412
 40
0.1647058823529412
 40
0.1647058823529412
 40
0.1764705882352941
 40
0.1764705882352941
 40
0.1764705882352941
 40
0.1764705882352941
 40
0.1882352941176471
 40
0.1882352941176471
 40
0.1882352941176471
 40
0.1882352941176471
 40
0.2
 40
0.2
 40
0.2
 40
0.2
 40
0.2117647058823529
 40
0.2117647058823529
 40
0.2117647058823529
 40
0.2117647058823529
 40
0.2235294117647059
 40
0.2235294117647059
 40
0.2235294117647059
 40
0.2235294117647059
 40
0.2352941176470588
 40
0.2352941176470588
 40
0.2352941176470588
 40
0.2352941176470588
 40
0.2470588235294118
 40
0.2470588235294118
 40
0.2470588235294118
 40
0.2470588235294118
 40
0.2588235294117647
 40
0.2588235294117647
 40
0.2588235294117647
 40
0.2588235294117647
 40
0.2705882352941176
 40
0.2705882352941176
 40
0.2705882352941176
 40
0.2705882352941176
 40
0.2823529411764706
 40
0.2823529411764706
 40
0.2823529411764706
 40
0.2823529411764706
 40
0.2941176470588235
 40
0.2941176470588235
 40
0.2941176470588235
 40
0.2941176470588235
 40
0.3058823529411765
 40
0.3058823529411765
 40
0.3058823529411765
 40
0.3058823529411765
 40
0.3176470588235294
 40
0.3176470588235294
 40
0.3176470588235294
 40
0.3176470588235294
 40
0.3294117647058823
 40
0.3294117647058823
 40
0.3294117647058823
 40
0.3294117647058823
 40
0.3411764705882353
 40
0.3411764705882353
 40
0.3411764705882353
 40
0.3411764705882353
 40
0.3529411764705883
 40
0.3529411764705883
 40
0.3529411764705883
 40
0.3529411764705883
 40
0.3647058823529412
 40
0.3647058823529412
 40
0.3647058823529412
 40
0.3647058823529412
 40
0.3764705882352941
 40
0.3764705882352941
 40
0.3764705882352941
 40
0.3764705882352941
 40
0.3882352941176471
 40
0.3882352941176471
 40
0.3882352941176471
 40
0.3882352941176471
 40
0.4
 40
0.4
 40
0.4
 40
0.4
 40
0.4117647058823529
 40
0.4117647058823529
 40
0.4117647058823529
 40
0.4117647058823529
 40
0.4235294117647059
 40
0.4235294117647059
 40
0.4235294117647059
 40
0.4235294117647059
 40
0.4352941176470588
 40
0.4352941176470588
 40
0.4352941176470588
 40
0.4352941176470588
 40
0.4470588235294118
 40
0.4470588235294118
 40
0.4470588235294118
 40
0.4470588235294118
 40
0.4588235294117647
 40
0.4588235294117647
 40
0.4588235294117647
 40
0.4588235294117647
 40
0.4705882352941176
 40
0.4705882352941176
 40
0.4705882352941176
 40
0.4705882352941176
 40
0.4823529411764706
 40
0.4823529411764706
 40
0.4823529411764706
 40
0.4823529411764706
 40
0.4941176470588236
 40
0.4941176470588236
 40
0.4941176470588236
 40
0.4941176470588236
 40
0.5058823529411764
 40
0.5058823529411764
 40
0.5058823529411764
 40
0.5058823529411764
 40
0.5176470588235295
 40
0.5176470588235295
 40
0.5176470588235295
 40
0.5176470588235295
 40
0.5294117647058824
 40
0.5294117647058824
 40
0.5294117647058824
 40
0.5294117647058824
 40
0.5411764705882353
 40
0.5411764705882353
 40
0.5411764705882353
 40
0.5411764705882353
 40
0.5529411764705883
 40
0.5529411764705883
 40
0.5529411764705883
 40
0.5529411764705883
 40
0.5647058823529412
 40
0.5647058823529412
 40
0.5647058823529412
 40
0.5647058823529412
 40
0.5764705882352941
 40
0.5764705882352941
 40
0.5764705882352941
 40
0.5764705882352941
 40
0.5882352941176471
 40
0.5882352941176471
 40
0.5882352941176471
 40
0.5882352941176471
 40
0.6
 40
0.6
 40
0.6
 40
0.6
 40
0.611764705882353
 40
0.611764705882353
 40
0.611764705882353
 40
0.611764705882353
 40
0.6235294117647059
 40
0.6235294117647059
 40
0.6235294117647059
 40
0.6235294117647059
 40
0.6352941176470588
 40
0.6352941176470588
 40
0.6352941176470588
 40
0.6352941176470588
 40
0.6470588235294118
 40
0.6470588235294118
 40
0.6470588235294118
 40
0.6470588235294118
 40
0.6588235294117647
 40
0.6588235294117647
 40
0.6588235294117647
 40
0.6588235294117647
 40
0.6705882352941176
 40
0.6705882352941176
 40
0.6705882352941176
 40
0.6705882352941176
 40
0.6823529411764706
 40
0.6823529411764706
 40
0.6823529411764706
 40
0.6823529411764706
 40
0.6941176470588235
 40
0.6941176470588235
 40
0.6941176470588235
 40
0.6941176470588235
 40
0.7058823529411765
 40
0.7058823529411765
 40
0.7058823529411765
 40
0.7058823529411765
 40
0.7176470588235294
 40
0.7176470588235294
 40
0.7176470588235294
 40
0.7176470588235294
 40
0.7294117647058823
 40
0.7294117647058823
 40
0.7294117647058823
 40
0.7294117647058823
 40
0.7411764705882353
 40
0.7411764705882353
 40
0.7411764705882353
 40
0.7411764705882353
 40
0.7529411764705882
 40
0.7529411764705882
 40
0.7529411764705882
 40
0.7529411764705882
 40
0.7647058823529411
 40
0.7647058823529411
 40
0.7647058823529411
 40
0.7647058823529411
 40
0.7764705882352941
 40
0.7764705882352941
 40
0.7764705882352941
 40
0.7764705882352941
 40
0.788235294117647
 40
0.788235294117647
 40
0.788235294117647
 40
0.788235294117647
 40
0.8
 40
0.8
 40
0.8
 40
0.8
 40
0.8117647058823529
 40
0.8117647058823529
 40
0.8117647058823529
 40
0.8117647058823529
 40
0.8235294117647058
 40
0.8235294117647058
 40
0.8235294117647058
 40
0.8235294117647058
 40
0.8352941176470589
 40
0.8352941176470589
 40
0.8352941176470589
 40
0.8352941176470589
 40
0.8470588235294118
 40
0.8470588235294118
 40
0.8470588235294118
 40
0.8470588235294118
 40
0.8588235294117647
 40
0.8588235294117647
 40
0.8588235294117647
 40
0.8588235294117647
 40
0.8705882352941177
 40
0.8705882352941177
 40
0.8705882352941177
 40
0.8705882352941177
 40
0.8823529411764706
 40
0.8823529411764706
 40
0.8823529411764706
 40
0.8823529411764706
 40
0.8941176470588236
 40
0.8941176470588236
 40
0.8941176470588236
 40
0.8941176470588236
 40
0.9058823529411765
 40
0.9058823529411765
 40
0.9058823529411765
 40
0.9058823529411765
 40
0.9176470588235294
 40
0.9176470588235294
 40
0.9176470588235294
 40
0.9176470588235294
 40
0.9294117647058824
 40
0.9294117647058824
 40
0.9294117647058824
 40
0.9294117647058824
 40
0.9411764705882353
 40
0.9411764705882353
 40
0.9411764705882353
 40
0.9411764705882353
 40
0.9529411764705882
 40
0.9529411764705882
 40
0.9529411764705882
 40
0.9529411764705882
 40
0.9647058823529412
 40
0.9647058823529412
 40
0.9647058823529412
 40
0.9647058823529412
 40
0.9764705882352941
 40
0.9764705882352941
 40
0.9764705882352941
 40
0.9764705882352941
 40
1.0
 40
1.0
 40
1.0
 40
1.0
 10
-0.094
 20
-2.24409
 30
0.0
 10
-0.094
 20
-2.24409
 30
0.0
 10
-0.18652
 20
-2.22644
 30
0.0
 10
-0.18652
 20
-2.22644
 30
0.0
 10
-0.18652
 20
-2.22644
 30
0.0
 10
-0.18652
 20
-2.22644
 30
0.0
 10
-0.27609
 20
-2.19733
 30
0.0
 10
-0.27609
 20
-2.19733
 30
0.0
 10
-0.27609
 20
-2.19733
 30
0.0
 10
-0.27609
 20
-2.19733
 30
0.0
 10
-0.36131
 20
-2.15723
 30
0.0
 10
-0.36131
 20
-2.15723
 30
0.0
 10
-0.36131
 20
-2.15723
 30
0.0
 10
-0.36131
 20
-2.15723
 30
0.0
 10
-0.44084
 20
-2.10676
 30
0.0
 10
-0.44084
 20
-2.10676
 30
0.0
 10
-0.44084
 20
-2.10676
 30
0.0
 10
-0.44084
 20
-2.10676
 30
0.0
 10
-0.51341
 20
-2.04673
 30
0.0
 10
-0.51341
 20
-2.04673
 30
0.0
 10
-0.51341
 20
-2.04673
 30
0.0
 10
-0.51341
 20
-2.04673
 30
0.0
 10
-0.57788
 20
-1.97807
 30
0.0
 10
-0.57788
 20
-1.97807
 30
0.0
 10
-0.57788
 20
-1.97807
 30
0.0
 10
-0.57788
 20
-1.97807
 30
0.0
 10
-0.63325
 20
-1.90187
 30
0.0
 10
-0.63325
 20
-1.90187
 30
0.0
 10
-0.63325
 20
-1.90187
 30
0.0
 10
-0.63325
 20
-1.90187
 30
0.0
 10
-0.67862
 20
-1.81933
 30
0.0
 10
-0.67862
 20
-1.81933
 30
0.0
 10
-0.67862
 20
-1.81933
 30
0.0
 10
-0.67862
 20
-1.81933
 30
0.0
 10
-0.71329
 20
-1.73176
 30
0.0
 10
-0.71329
 20
-1.73176
 30
0.0
 10
-0.71329
 20
-1.73176
 30
0.0
 10
-0.71329
 20
-1.73176
 30
0.0
 10
-0.73671
 20
-1.64053
 30
0.0
 10
-0.73671
 20
-1.64053
 30
0.0
 10
-0.73671
 20
-1.64053
 30
0.0
 10
-0.73671
 20
-1.64053
 30
0.0
 10
-0.74852
 20
-1.54709
 30
0.0
 10
-0.74852
 20
-1.54709
 30
0.0
 10
-0.74852
 20
-1.54709
 30
0.0
 10
-0.74852
 20
-1.54709
 30
0.0
 10
-0.74852
 20
0.22843
 30
0.0
 10
-0.74852
 20
0.22843
 30
0.0
 10
-0.74852
 20
0.22843
 30
0.0
 10
-0.74852
 20
0.22843
 30
0.0
 10
-0.86052
 20
0.30981
 30
0.0
 10
-0.86052
 20
0.30981
 30
0.0
 10
-0.86052
 20
0.30981
 30
0.0
 10
-0.86052
 20
0.30981
 30
0.0
 10
-0.98411
 20
0.42586
 30
0.0
 10
-0.98411
 20
0.42586
 30
0.0
 10
-0.98411
 20
0.42586
 30
0.0
 10
-0.98411
 20
0.42586
 30
0.0
 10
-1.09217
 20
0.55649
 30
0.0
 10
-1.09217
 20
0.55649
 30
0.0
 10
-1.09217
 20
0.55649
 30
0.0
 10
-1.09217
 20
0.55649
 30
0.0
 10
-1.18301
 20
0.69963
 30
0.0
 10
-1.18301
 20
0.69963
 30
0.0
 10
-1.18301
 20
0.69963
 30
0.0
 10
-1.18301
 20
0.69963
 30
0.0
 10
-1.2552
 20
0.853
 30
0.0
 10
-1.2552
 20
0.853
 30
0.0
 10
-1.2552
 20
0.853
 30
0.0
 10
-1.2552
 20
0.853
 30
0.0
 10
-1.30759
 20
1.0143
 30
0.0
 10
-1.30759
 20
1.0143
 30
0.0
 10
-1.30759
 20
1.0143
 30
0.0
 10
-1.30759
 20
1.0143
 30
0.0
 10
-1.33935
 20
1.1808
 30
0.0
 10
-1.33935
 20
1.1808
 30
0.0
 10
-1.33935
 20
1.1808
 30
0.0
 10
-1.33935
 20
1.1808
 30
0.0
 10
-1.35
 20
1.35
 30
0.0
 10
-1.35
 20
1.35
 30
0.0
 10
-1.35
 20
1.35
 30
0.0
 10
-1.35
 20
1.35
 30
0.0
 10
-1.33935
 20
1.5192
 30
0.0
 10
-1.33935
 20
1.5192
 30
0.0
 10
-1.33935
 20
1.5192
 30
0.0
 10
-1.33935
 20
1.5192
 30
0.0
 10
-1.30759
 20
1.6857
 30
0.0
 10
-1.30759
 20
1.6857
 30
0.0
 10
-1.30759
 20
1.6857
 30
0.0
 10
-1.30759
 20
1.6857
 30
0.0
 10
-1.2552
 20
1.847
 30
0.0
 10
-1.2552
 20
1.847
 30
0.0
 10
-1.2552
 20
1.847
 30
0.0
 10
-1.2552
 20
1.847
 30
0.0
 10
-1.18301
 20
2.0004
 30
0.0
 10
-1.18301
 20
2.0004
 30
0.0
 10
-1.18301
 20
2.0004
 30
0.0
 10
-1.18301
 20
2.0004
 30
0.0
 10
-1.09217
 20
2.1435
 30
0.0
 10
-1.09217
 20
2.1435
 30
0.0
 10
-1.09217
 20
2.1435
 30
0.0
 10
-1.09217
 20
2.1435
 30
0.0
 10
-0.98411
 20
2.2741
 30
0.0
 10
-0.98411
 20
2.2741
 30
0.0
 10
-0.98411
 20
2.2741
 30
0.0
 10
-0.98411
 20
2.2741
 30
0.0
 10
-0.86052
 20
2.3902
 30
0.0
 10
-0.86052
 20
2.3902
 30
0.0
 10
-0.86052
 20
2.3902
 30
0.0
 10
-0.86052
 20
2.3902
 30
0.0
 10
-0.74852
 20
2.4716
 30
0.0
 10
-0.74852
 20
2.4716
 30
0.0
 10
-0.74852
 20
2.4716
 30
0.0
 10
-0.74852
 20
2.4716
 30
0.0
 10
-0.74852
 20
3.0471
 30
0.0
 10
-0.74852
 20
3.0471
 30
0.0
 10
-0.74852
 20
3.0471
 30
0.0
 10
-0.74852
 20
3.0471
 30
0.0
 10
-0.73671
 20
3.1405
 30
0.0
 10
-0.73671
 20
3.1405
 30
0.0
 10
-0.73671
 20
3.1405
 30
0.0
 10
-0.73671
 20
3.1405
 30
0.0
 10
-0.71329
 20
3.2318
 30
0.0
 10
-0.71329
 20
3.2318
 30
0.0
 10
-0.71329
 20
3.2318
 30
0.0
 10
-0.71329
 20
3.2318
 30
0.0
 10
-0.67862
 20
3.3193
 30
0.0
 10
-0.67862
 20
3.3193
 30
0.0
 10
-0.67862
 20
3.3193
 30
0.0
 10
-0.67862
 20
3.3193
 30
0.0
 10
-0.63325
 20
3.4019
 30
0.0
 10
-0.63325
 20
3.4019
 30
0.0
 10
-0.63325
 20
3.4019
 30
0.0
 10
-0.63325
 20
3.4019
 30
0.0
 10
-0.57788
 20
3.4781
 30
0.0
 10
-0.57788
 20
3.4781
 30
0.0
 10
-0.57788
 20
3.4781
 30
0.0
 10
-0.57788
 20
3.4781
 30
0.0
 10
-0.51341
 20
3.5467
 30
0.0
 10
-0.51341
 20
3.5467
 30
0.0
 10
-0.51341
 20
3.5467
 30
0.0
 10
-0.51341
 20
3.5467
 30
0.0
 10
-0.44084
 20
3.6068
 30
0.0
 10
-0.44084
 20
3.6068
 30
0.0
 10
-0.44084
 20
3.6068
 30
0.0
 10
-0.44084
 20
3.6068
 30
0.0
 10
-0.36131
 20
3.6572
 30
0.0
 10
-0.36131
 20
3.6572
 30
0.0
 10
-0.36131
 20
3.6572
 30
0.0
 10
-0.36131
 20
3.6572
 30
0.0
 10
-0.27609
 20
3.6973
 30
0.0
 10
-0.27609
 20
3.6973
 30
0.0
 10
-0.27609
 20
3.6973
 30
0.0
 10
-0.27609
 20
3.6973
 30
0.0
 10
-0.18652
 20
3.7264
 30
0.0
 10
-0.18652
 20
3.7264
 30
0.0
 10
-0.18652
 20
3.7264
 30
0.0
 10
-0.18652
 20
3.7264
 30
0.0
 10
-0.094
 20
3.7441
 30
0.0
 10
-0.094
 20
3.7441
 30
0.0
 10
-0.094
 20
3.7441
 30
0.0
 10
-0.094
 20
3.7441
 30
0.0
 10
0.0
 20
3.75
 30
0.0
 10
0.0
 20
3.75
 30
0.0
 10
0.0
 20
3.75
 30
0.0
 10
0.0
 20
3.75
 30
0.0
 10
0.094
 20
3.7441
 30
0.0
 10
0.094
 20
3.7441
 30
0.0
 10
0.094
 20
3.7441
 30
0.0
 10
0.094
 20
3.7441
 30
0.0
 10
0.18652
 20
3.7264
 30
0.0
 10
0.18652
 20
3.7264
 30
0.0
 10
0.18652
 20
3.7264
 30
0.0
 10
0.18652
 20
3.7264
 30
0.0
 10
0.27609
 20
3.6973
 30
0.0
 10
0.27609
 20
3.6973
 30
0.0
 10
0.27609
 20
3.6973
 30
0.0
 10
0.27609
 20
3.6973
 30
0.0
 10
0.36131
 20
3.6572
 30
0.0
 10
0.36131
 20
3.6572
 30
0.0
 10
0.36131
 20
3.6572
 30
0.0
 10
0.36131
 20
3.6572
 30
0.0
 10
0.44084
 20
3.6068
 30
0.0
 10
0.44084
 20
3.6068
 30
0.0
 10
0.44084
 20
3.6068
 30
0.0
 10
0.44084
 20
3.6068
 30
0.0
 10
0.51341
 20
3.5467
 30
0.0
 10
0.51341
 20
3.5467
 30
0.0
 10
0.51341
 20
3.5467
 30
0.0
 10
0.51341
 20
3.5467
 30
0.0
 10
0.57788
 20
3.4781
 30
0.0
 10
0.57788
 20
3.4781
 30
0.0
 10
0.57788
 20
3.4781
 30
0.0
 10
0.57788
 20
3.4781
 30
0.0
 10
0.63325
 20
3.4019
 30
0.0
 10
0.63325
 20
3.4019
 30
0.0
 10
0.63325
 20
3.4019
 30
0.0
 10
0.63325
 20
3.4019
 30
0.0
 10
0.67862
 20
3.3193
 30
0.0
 10
0.67862
 20
3.3193
 30
0.0
 10
0.67862
 20
3.3193
 30
0.0
 10
0.67862
 20
3.3193
 30
0.0
 10
0.71329
 20
3.2318
 30
0.0
 10
0.71329
 20
3.2318
 30
0.0
 10
0.71329
 20
3.2318
 30
0.0
 10
0.71329
 20
3.2318
 30
0.0
 10
0.73671
 20
3.1405
 30
0.0
 10
0.73671
 20
3.1405
 30
0.0
 10
0.73671
 20
3.1405
 30
0.0
 10
0.73671
 20
3.1405
 30
0.0
 10
0.74852
 20
3.0471
 30
0.0
 10
0.74852
 20
3.0471
 30
0.0
 10
0.74852
 20
3.0471
 30
0.0
 10
0.74852
 20
3.0471
 30
0.0
 10
0.74852
 20
2.4716
 30
0.0
 10
0.74852
 20
2.4716
 30
0.0
 10
0.74852
 20
2.4716
 30
0.0
 10
0.74852
 20
2.4716
 30
0.0
 10
0.86052
 20
2.3902
 30
0.0
 10
0.86052
 20
2.3902
 30
0.0
 10
0.86052
 20
2.3902
 30
0.0
 10
0.86052
 20
2.3902
 30
0.0
 10
0.98411
 20
2.2741
 30
0.0
 10
0.98411
 20
2.2741
 30
0.0
 10
0.98411
 20
2.2741
 30
0.0
 10
0.98411
 20
2.2741
 30
0.0
 10
1.09217
 20
2.1435
 30
0.0
 10
1.09217
 20
2.1435
 30
0.0
 10
1.09217
 20
2.1435
 30
0.0
 10
1.09217
 20
2.1435
 30
0.0
 10
1.18301
 20
2.0004
 30
0.0
 10
1.18301
 20
2.0004
 30
0.0
 10
1.18301
 20
2.0004
 30
0.0
 10
1.18301
 20
2.0004
 30
0.0
 10
1.2552
 20
1.847
 30
0.0
 10
1.2552
 20
1.847
 30
0.0
 10
1.2552
 20
1.847
 30
0.0
 10
1.2552
 20
1.847
 30
0.0
 10
1.30759
 20
1.6857
 30
0.0
 10
1.30759
 20
1.6857
 30
0.0
 10
1.30759
 20
1.6857
 30
0.0
 10
1.30759
 20
1.6857
 30
0.0
 10
1.33935
 20
1.5192
 30
0.0
 10
1.33935
 20
1.5192
 30
0.0
 10
1.33935
 20
1.5192
 30
0.0
 10
1.33935
 20
1.5192
 30
0.0
 10
1.35
 20
1.35
 30
0.0
 10
1.35
 20
1.35
 30
0.0
 10
1.35
 20
1.35
 30
0.0
 10
1.35
 20
1.35
 30
0.0
 10
1.33935
 20
1.1808
 30
0.0
 10
1.33935
 20
1.1808
 30
0.0
 10
1.33935
 20
1.1808
 30
0.0
 10
1.33935
 20
1.1808
 30
0.0
 10
1.30759
 20
1.0143
 30
0.0
 10
1.30759
 20
1.0143
 30
0.0
 10
1.30759
 20
1.0143
 30
0.0
 10
1.30759
 20
1.0143
 30
0.0
 10
1.2552
 20
0.853
 30
0.0
 10
1.2552
 20
0.853
 30
0.0
 10
1.2552
 20
0.853
 30
0.0
 10
1.2552
 20
0.853
 30
0.0
 10
1.18301
 20
0.69963
 30
0.0
 10
1.18301
 20
0.69963
 30
0.0
 10
1.18301
 20
0.69963
 30
0.0
 10
1.18301
 20
0.69963
 30
0.0
 10
1.09217
 20
0.55649
 30
0.0
 10
1.09217
 20
0.55649
 30
0.0
 10
1.09217
 20
0.55649
 30
0.0
 10
1.09217
 20
0.55649
 30
0.0
 10
0.98411
 20
0.42586
 30
0.0
 10
0.98411
 20
0.42586
 30
0.0
 10
0.98411
 20
0.42586
 30
0.0
 10
0.98411
 20
0.42586
 30
0.0
 10
0.86052
 20
0.30981
 30
0.0
 10
0.86052
 20
0.30981
 30
0.0
 10
0.86052
 20
0.30981
 30
0.0
 10
0.86052
 20
0.30981
 30
0.0
 10
0.74852
 20
0.22843
 30
0.0
 10
0.74852
 20
0.22843
 30
0.0
 10
0.74852
 20
0.22843
 30
0.0
 10
0.74852
 20
0.22843
 30
0.0
 10
0.74852
 20
-1.54709
 30
0.0
 10
0.74852
 20
-1.54709
 30
0.0
 10
0.74852
 20
-1.54709
 30
0.0
 10
0.74852
 20
-1.54709
 30
0.0
 10
0.73671
 20
-1.64053
 30
0.0
 10
0.73671
 20
-1.64053
 30
0.0
 10
0.73671
 20
-1.64053
 30
0.0
 10
0.73671
 20
-1.64053
 30
0.0
 10
0.71329
 20
-1.73176
 30
0.0
 10
0.71329
 20
-1.73176
 30
0.0
 10
0.71329
 20
-1.73176
 30
0.0
 10
0.71329
 20
-1.73176
 30
0.0
 10
0.67862
 20
-1.81933
 30
0.0
 10
0.67862
 20
-1.81933
 30
0.0
 10
0.67862
 20
-1.81933
 30
0.0
 10
0.67862
 20
-1.81933
 30
0.0
 10
0.63325
 20
-1.90187
 30
0.0
 10
0.63325
 20
-1.90187
 30
0.0
 10
0.63325
 20
-1.90187
 30
0.0
 10
0.63325
 20
-1.90187
 30
0.0
 10
0.57788
 20
-1.97807
 30
0.0
 10
0.57788
 20
-1.97807
 30
0.0
 10
0.57788
 20
-1.97807
 30
0.0
 10
0.57788
 20
-1.97807
 30
0.0
 10
0.51341
 20
-2.04673
 30
0.0
 10
0.51341
 20
-2.04673
 30
0.0
 10
0.51341
 20
-2.04673
 30
0.0
 10
0.51341
 20
-2.04673
 30
0.0
 10
0.44084
 20
-2.10676
 30
0.0
 10
0.44084
 20
-2.10676
 30
0.0
 10
0.44084
 20
-2.10676
 30
0.0
 10
0.44084
 20
-2.10676
 30
0.0
 10
0.36131
 20
-2.15723
 30
0.0
 10
0.36131
 20
-2.15723
 30
0.0
 10
0.36131
 20
-2.15723
 30
0.0
 10
0.36131
 20
-2.15723
 30
0.0
 10
0.27609
 20
-2.19733
 30
0.0
 10
0.27609
 20
-2.19733
 30
0.0
 10
0.27609
 20
-2.19733
 30
0.0
 10
0.27609
 20
-2.19733
 30
0.0
 10
0.18652
 20
-2.22644
 30
0.0
 10
0.18652
 20
-2.22644
 30
0.0
 10
0.18652
 20
-2.22644
 30
0.0
 10
0.18652
 20
-2.22644
 30
0.0
 10
0.094
 20
-2.24409
 30
0.0
 10
0.094
 20
-2.24409
 30
0.0
 10
0.094
 20
-2.24409
 30
0.0
 10
0.094
 20
-2.24409
 30
0.0
 10
0.0
 20
-2.25
 30
0.0
 10
0.0
 20
-2.25
 30
0.0
 10
0.0
 20
-2.25
 30
0.0
 10
0.0
 20
-2.25
 30
0.0
 10
-0.094
 20
-2.24409
 30
0.0
 10
-0.094
 20
-2.24409
 30
0.0
  0
ENDSEC
  0
SECTION
  2
OBJECTS
  0
DICTIONARY
  5
C
330
0
100
AcDbDictionary
281
     1
  3
ACAD_GROUP
350
D
  3
ACAD_LAYOUT
350
1A
  3
ACAD_MATERIAL
350
3B
  3
ACAD_MLEADERSTYLE
350
66
  3
ACAD_MLINESTYLE
350
17
  3
ACAD_PLOTSETTINGS
350
19
  3
ACAD_PLOTSTYLENAME
350
E
  3
ACAD_TABLESTYLE
350
65
  3
ACAD_VISUALSTYLE
350
2A
  0
DICTIONARY
  5
D
102
{ACAD_REACTORS
330
C
102
}
330
C
100
AcDbDictionary
281
     1
  0
DICTIONARY
  5
1A
102
{ACAD_REACTORS
330
C
102
}
330
C
100
AcDbDictionary
281
     1
  3
Layout1
350
1E
  3
Layout2
350
26
  3
Model
350
22
  0
DICTIONARY
  5
3B
102
{ACAD_REACTORS
330
C
102
}
330
C
100
AcDbDictionary
281
     1
  3
ByBlock
350
3D
  3
ByLayer
350
3C
  3
Global
350
3E
  0
DICTIONARY
  5
66
102
{ACAD_REACTORS
330
C
102
}
330
C
100
AcDbDictionary
281
     1
  0
DICTIONARY
  5
17
102
{ACAD_REACTORS
330
C
102
}
330
C
100
AcDbDictionary
281
     1
  3
Standard
350
18
  0
DICTIONARY
  5
19
102
{ACAD_REACTORS
330
C
102
}
330
C
100
AcDbDictionary
281
     1
  0
ACDBDICTIONARYWDFLT
  5
E
102
{ACAD_REACTORS
330
C
102
}
330
C
100
AcDbDictionary
281
     1
  3
Normal
350
F
100
AcDbDictionaryWithDefault
340
F
  0
DICTIONARY
  5
65
102
{ACAD_REACTORS
330
C
102
}
330
C
100
AcDbDictionary
281
     1
  0
DICTIONARY
  5
2A
102
{ACAD_REACTORS
330
C
102
}
330
C
100
AcDbDictionary
281
     1
  3
2dWireframe
350
2F
  3
3D Hidden
350
31
  3
3dWireframe
350
30
  3
Basic
350
32
  3
Brighten
350
36
  3
ColorChange
350
3A
  3
Conceptual
350
34
  3
Dim
350
35
  3
Facepattern
350
39
  3
Flat
350
2B
  3
FlatWithEdges
350
2C
  3
Gouraud
350
2D
  3
GouraudWithEdges
350
2E
  3
Linepattern
350
38
  3
Realistic
350
33
  3
Thicken
350
37
  0
LAYOUT
  5
1E
102
{ACAD_REACTORS
330
1A
102
}
330
1A
100
AcDbPlotSettings
  1

  2
none_device
  4

  6

 40
0.0
 41
0.0
 42
0.0
 43
0.0
 44
0.0
 45
0.0
 46
0.0
 47
0.0
 48
0.0
 49
0.0
140
0.0
141
0.0
142
1.0
143
1.0
 70
   688
 72
     0
 73
     0
 74
     5
  7

 75
    16
 76
     0
 77
     2
 78
   300
147
1.0
148
0.0
149
0.0
100
AcDbLayout
  1
Layout1
 70
     1
 71
     1
 10
0.0
 20
0.0
 11
12.0
 21
9.0
 12
0.0
 22
0.0
 32
0.0
 14
1.000000000000000E+20
 24
1.000000000000000E+20
 34
1.000000000000000E+20
 15
-1.000000000000000E+20
 25
-1.000000000000000E+20
 35
-1.000000000000000E+20
146
0.0
 13
0.0
 23
0.0
 33
0.0
 16
1.0
 26
0.0
 36
0.0
 17
0.0
 27
1.0
 37
0.0
 76
     0
330
1B
  0
LAYOUT
  5
26
102
{ACAD_REACTORS
330
1A
102
}
330
1A
100
AcDbPlotSettings
  1

  2
none_device
  4

  6

 40
0.0
 41
0.0
 42
0.0
 43
0.0
 44
0.0
 45
0.0
 46
0.0
 47
0.0
 48
0.0
 49
0.0
140
0.0
141
0.0
142
1.0
143
1.0
 70
   688
 72
     0
 73
     0
 74
     5
  7

 75
    16
 76
     0
 77
     2
 78
   300
147
1.0
148
0.0
149
0.0
100
AcDbLayout
  1
Layout2
 70
     1
 71
     2
 10
0.0
 20
0.0
 11
0.0
 21
0.0
 12
0.0
 22
0.0
 32
0.0
 14
0.0
 24
0.0
 34
0.0
 15
0.0
 25
0.0
 35
0.0
146
0.0
 13
0.0
 23
0.0
 33
0.0
 16
1.0
 26
0.0
 36
0.0
 17
0.0
 27
1.0
 37
0.0
 76
     0
330
23
  0
LAYOUT
  5
22
102
{ACAD_REACTORS
330
1A
102
}
330
1A
100
AcDbPlotSettings
  1

  2
none_device
  4

  6

 40
0.0
 41
0.0
 42
0.0
 43
0.0
 44
0.0
 45
0.0
 46
0.0
 47
0.0
 48
0.0
 49
0.0
140
0.0
141
0.0
142
1.0
143
1.0
 70
  1712
 72
     0
 73
     0
 74
     0
  7

 75
     0
 76
     0
 77
     2
 78
   300
147
1.0
148
0.0
149
0.0
100
AcDbLayout
  1
Model
 70
     1
 71
     0
 10
0.0
 20
0.0
 11
12.0
 21
9.0
 12
0.0
 22
0.0
 32
0.0
 14
-2.225
 24
-4.47401
 34
0.0
 15
2.225
 25
4.474
 35
0.0
146
0.0
 13
0.0
 23
0.0
 33
0.0
 16
1.0
 26
0.0
 36
0.0
 17
0.0
 27
1.0
 37
0.0
 76
     0
330
1F
331
29
  0
MATERIAL
  5
3D
102
{ACAD_REACTORS
330
3B
102
}
330
3B
100
AcDbMaterial
  1
ByBlock
 72
     1
 94
      127
  0
MATERIAL
  5
3C
102
{ACAD_REACTORS
330
3B
102
}
330
3B
100
AcDbMaterial
  1
ByLayer
 72
     1
 94
      127
  0
MATERIAL
  5
3E
102
{ACAD_REACTORS
330
3B
102
}
330
3B
100
AcDbMaterial
  1
Global
 72
     1
 94
      127
  0
MLINESTYLE
  5
18
102
{ACAD_REACTORS
330
17
102
}
330
17
100
AcDbMlineStyle
  2
Standard
 70
     0
  3

 62
   256
 51
90.0
 52
90.0
 71
     2
 49
0.5
 62
   256
  6
BYLAYER
 49
-0.5
 62
   256
  6
BYLAYER
  0
ACDBPLACEHOLDER
  5
F
102
{ACAD_REACTORS
330
E
102
}
330
E
  0
VISUALSTYLE
  5
2F
102
{ACAD_REACTORS
330
2A
102
}
102
{ACAD_XDICTIONARY
360
4D
102
}
330
2A
100
AcDbVisualStyle
  2
2dWireframe
 70
     4
 71
     0
 72
     2
 73
     0
 90
        0
 40
-0.6
 41
-30.0
 62
     5
 63
     7
421
 16777215
 74
     1
 91
        4
 64
     7
 65
   257
 75
     1
175
     1
 42
1.0
 92
        0
 66
   257
 43
1.0
 76
     1
 77
     6
 78
     2
 67
     7
 79
     5
170
     0
171
     0
290
     0
174
     0
 93
        1
 44
0.0
173
     0
291
     0
 45
0.0
  0
VISUALSTYLE
  5
31
102
{ACAD_REACTORS
330
2A
102
}
102
{ACAD_XDICTIONARY
360
51
102
}
330
2A
100
AcDbVisualStyle
  2
3D Hidden
 70
     6
 71
     1
 72
     2
 73
     2
 90
        0
 40
-0.6
 41
-30.0
 62
     5
 63
     7
421
 16777215
 74
     2
 91
        2
 64
     7
 65
   257
 75
     2
175
     1
 42
40.0
 92
        0
 66
   257
 43
1.0
 76
     1
 77
     6
 78
     2
 67
     7
 79
     3
170
     0
171
     0
290
     0
174
     0
 93
        1
 44
0.0
173
     0
291
     0
 45
0.0
  0
VISUALSTYLE
  5
30
102
{ACAD_REACTORS
330
2A
102
}
102
{ACAD_XDICTIONARY
360
4F
102
}
330
2A
100
AcDbVisualStyle
  2
3dWireframe
 70
     5
 71
     0
 72
     2
 73
     0
 90
        0
 40
-0.6
 41
-30.0
 62
     5
 63
     7
421
 16777215
 74
     1
 91
        4
 64
     7
 65
   257
 75
     1
175
     1
 42
1.0
 92
        0
 66
   257
 43
1.0
 76
     1
 77
     6
 78
     2
 67
     7
 79
     5
170
     0
171
     0
290
     0
174
     0
 93
        1
 44
0.0
173
     0
291
     0
 45
0.0
  0
VISUALSTYLE
  5
32
102
{ACAD_REACTORS
330
2A
102
}
102
{ACAD_XDICTIONARY
360
53
102
}
330
2A
100
AcDbVisualStyle
  2
Basic
 70
     7
 71
     1
 72
     0
 73
     1
 90
        0
 40
-0.6
 41
-30.0
 62
     5
 63
     7
421
 16777215
 74
     0
 91
        4
 64
     7
 65
   257
 75
     1
175
     1
 42
1.0
 92
        8
 66
     7
 43
1.0
 76
     1
 77
     6
 78
     2
 67
     7
 79
     5
170
     0
171
     0
290
     0
174
     0
 93
        1
 44
0.0
173
     0
291
     1
 45
0.0
  0
VISUALSTYLE
  5
36
102
{ACAD_REACTORS
330
2A
102
}
102
{ACAD_XDICTIONARY
360
5B
102
}
330
2A
100
AcDbVisualStyle
  2
Brighten
 70
    12
 71
     2
 72
     2
 73
     0
 90
        0
 40
-0.6
 41
-30.0
 62
     5
 63
     7
421
 16777215
 74
     1
 91
        4
 64
     7
 65
   257
 75
     1
175
     1
 42
1.0
 92
        8
 66
     7
 43
1.0
 76
     1
 77
     6
 78
     2
 67
     7
 79
     5
170
     0
171
     0
290
     0
174
     0
 93
        1
 44
50.0
173
     0
291
     1
 45
0.0
  0
VISUALSTYLE
  5
3A
102
{ACAD_REACTORS
330
2A
102
}
102
{ACAD_XDICTIONARY
360
63
102
}
330
2A
100
AcDbVisualStyle
  2
ColorChange
 70
    16
 71
     2
 72
     2
 73
     3
 90
        0
 40
-0.6
 41
-30.0
 62
     5
 63
     8
421
  8421504
 74
     1
 91
        4
 64
     7
 65
   257
 75
     1
175
     1
 42
1.0
 92
        8
 66
     8
424
  8421504
 43
1.0
 76
     1
 77
     6
 78
     2
 67
     7
 79
     5
170
     0
171
     0
290
     0
174
     0
 93
        1
 44
0.0
173
     0
291
     1
 45
0.0
  0
VISUALSTYLE
  5
34
102
{ACAD_REACTORS
330
2A
102
}
102
{ACAD_XDICTIONARY
360
57
102
}
330
2A
100
AcDbVisualStyle
  2
Conceptual
 70
     9
 71
     3
 72
     2
 73
     0
 90
        0
 40
-0.6
 41
-30.0
 62
     5
 63
     7
421
 16777215
 74
     2
 91
        2
 64
     7
 65
   257
 75
     1
175
     1
 42
40.0
 92
        8
 66
     7
 43
1.0
 76
     1
 77
     6
 78
     2
 67
     7
 79
     3
170
     0
171
     0
290
     0
174
     0
 93
        1
 44
0.0
173
     0
291
     0
 45
0.0
  0
VISUALSTYLE
  5
35
102
{ACAD_REACTORS
330
2A
102
}
102
{ACAD_XDICTIONARY
360
59
102
}
330
2A
100
AcDbVisualStyle
  2
Dim
 70
    11
 71
     2
 72
     2
 73
     0
 90
        0
 40
-0.6
 41
-30.0
 62
     5
 63
     7
421
 16777215
 74
     1
 91
        4
 64
     7
 65
   257
 75
     1
175
     1
 42
1.0
 92
        8
 66
     7
 43
1.0
 76
     1
 77
     6
 78
     2
 67
     7
 79
     5
170
     0
171
     0
290
     0
174
     0
 93
        1
 44
-50.0
173
     0
291
     1
 45
0.0
  0
VISUALSTYLE
  5
39
102
{ACAD_REACTORS
330
2A
102
}
102
{ACAD_XDICTIONARY
360
61
102
}
330
2A
100
AcDbVisualStyle
  2
Facepattern
 70
    15
 71
     2
 72
     2
 73
     0
 90
        0
 40
-0.6
 41
-30.0
 62
     5
 63
     7
421
 16777215
 74
     1
 91
        4
 64
     7
 65
   257
 75
     1
175
     1
 42
1.0
 92
        8
 66
     7
 43
1.0
 76
     1
 77
     6
 78
     2
 67
     7
 79
     5
170
     0
171
     0
290
     0
174
     0
 93
        1
 44
0.0
173
     0
291
     1
 45
0.0
  0
VISUALSTYLE
  5
2B
102
{ACAD_REACTORS
330
2A
102
}
102
{ACAD_XDICTIONARY
360
45
102
}
330
2A
100
AcDbVisualStyle
  2
Flat
 70
     0
 71
     2
 72
     1
 73
     1
 90
        2
 40
-0.6
 41
30.0
 62
     5
 63
     7
421
 16777215
 74
     0
 91
        4
 64
     7
 65
   257
 75
     1
175
     1
 42
1.0
 92
        8
 66
     7
 43
1.0
 76
     1
 77
     6
 78
     2
 67
     7
 79
     5
170
     0
171
     0
290
     0
174
     0
 93
       13
 44
0.0
173
     0
291
     1
 45
0.0
  0
VISUALSTYLE
  5
2C
102
{ACAD_REACTORS
330
2A
102
}
102
{ACAD_XDICTIONARY
360
47
102
}
330
2A
100
AcDbVisualStyle
  2
FlatWithEdges
 70
     1
 71
     2
 72
     1
 73
     1
 90
        2
 40
-0.6
 41
30.0
 62
     5
 63
     7
421
 16777215
 74
     1
 91
        4
 64
     7
 65
   257
 75
     1
175
     1
 42
1.0
 92
        0
 66
   257
 43
1.0
 76
     1
 77
     6
 78
     2
 67
     7
 79
     5
170
     0
171
     0
290
     0
174
     0
 93
       13
 44
0.0
173
     0
291
     1
 45
0.0
  0
VISUALSTYLE
  5
2D
102
{ACAD_REACTORS
330
2A
102
}
102
{ACAD_XDICTIONARY
360
49
102
}
330
2A
100
AcDbVisualStyle
  2
Gouraud
 70
     2
 71
     2
 72
     2
 73
     1
 90
        2
 40
-0.6
 41
30.0
 62
     5
 63
     7
421
 16777215
 74
     0
 91
        4
 64
     7
 65
   257
 75
     1
175
     1
 42
1.0
 92
        0
 66
     7
 43
1.0
 76
     1
 77
     6
 78
     2
 67
     7
 79
     5
170
     0
171
     0
290
     0
174
     0
 93
       13
 44
0.0
173
     0
291
     1
 45
0.0
  0
VISUALSTYLE
  5
2E
102
{ACAD_REACTORS
330
2A
102
}
102
{ACAD_XDICTIONARY
360
4B
102
}
330
2A
100
AcDbVisualStyle
  2
GouraudWithEdges
 70
     3
 71
     2
 72
     2
 73
     1
 90
        2
 40
-0.6
 41
30.0
 62
     5
 63
     7
421
 16777215
 74
     1
 91
        4
 64
     7
 65
   257
 75
     1
175
     1
 42
1.0
 92
        0
 66
   257
 43
1.0
 76
     1
 77
     6
 78
     2
 67
     7
 79
     5
170
     0
171
     0
290
     0
174
     0
 93
       13
 44
0.0
173
     0
291
     1
 45
0.0
  0
VISUALSTYLE
  5
38
102
{ACAD_REACTORS
330
2A
102
}
102
{ACAD_XDICTIONARY
360
5F
102
}
330
2A
100
AcDbVisualStyle
  2
Linepattern
 70
    14
 71
     2
 72
     2
 73
     0
 90
        0
 40
-0.6
 41
-30.0
 62
     5
 63
     7
421
 16777215
 74
     1
 91
        4
 64
     7
 65
   257
 75
     7
175
     7
 42
1.0
 92
        8
 66
     7
 43
1.0
 76
     1
 77
     6
 78
     2
 67
     7
 79
     5
170
     0
171
     0
290
     0
174
     0
 93
        1
 44
0.0
173
     0
291
     1
 45
0.0
  0
VISUALSTYLE
  5
33
102
{ACAD_REACTORS
330
2A
102
}
102
{ACAD_XDICTIONARY
360
55
102
}
330
2A
100
AcDbVisualStyle
  2
Realistic
 70
     8
 71
     2
 72
     2
 73
     0
 90
        0
 40
-0.6
 41
-30.0
 62
     5
 63
     7
421
 16777215
 74
     1
 91
        0
 64
     7
 65
   257
 75
     1
175
     1
 42
1.0
 92
        8
 66
     8
424
  7895160
 43
1.0
 76
     1
 77
     6
 78
     2
 67
     7
 79
     5
170
     0
171
     0
290
     0
174
     0
 93
       13
 44
0.0
173
     0
291
     0
 45
0.0
  0
VISUALSTYLE
  5
37
102
{ACAD_REACTORS
330
2A
102
}
102
{ACAD_XDICTIONARY
360
5D
102
}
330
2A
100
AcDbVisualStyle
  2
Thicken
 70
    13
 71
     2
 72
     2
 73
     0
 90
        0
 40
-0.6
 41
-30.0
 62
     5
 63
     7
421
 16777215
 74
     1
 91
        4
 64
     7
 65
   257
 75
     1
175
     1
 42
1.0
 92
       12
 66
     7
 43
1.0
 76
     1
 77
     6
 78
     2
 67
     7
 79
     5
170
     0
171
     0
290
     0
174
     0
 93
        1
 44
0.0
173
     0
291
     1
 45
0.0
  0
DICTIONARY
  5
4D
330
2F
100
AcDbDictionary
280
     1
281
     1
  3
ACAD_XREC_ROUNDTRIP
360
4E
  0
DICTIONARY
  5
51
330
31
100
AcDbDictionary
280
     1
281
     1
  3
ACAD_XREC_ROUNDTRIP
360
52
  0
DICTIONARY
  5
4F
330
30
100
AcDbDictionary
280
     1
281
     1
  3
ACAD_XREC_ROUNDTRIP
360
50
  0
DICTIONARY
  5
53
330
32
100
AcDbDictionary
280
     1
281
     1
  3
ACAD_XREC_ROUNDTRIP
360
54
  0
DICTIONARY
  5
5B
330
36
100
AcDbDictionary
280
     1
281
     1
  3
ACAD_XREC_ROUNDTRIP
360
5C
  0
DICTIONARY
  5
63
330
3A
100
AcDbDictionary
280
     1
281
     1
  3
ACAD_XREC_ROUNDTRIP
360
64
  0
DICTIONARY
  5
57
330
34
100
AcDbDictionary
280
     1
281
     1
  3
ACAD_XREC_ROUNDTRIP
360
58
  0
DICTIONARY
  5
59
330
35
100
AcDbDictionary
280
     1
281
     1
  3
ACAD_XREC_ROUNDTRIP
360
5A
  0
DICTIONARY
  5
61
330
39
100
AcDbDictionary
280
     1
281
     1
  3
ACAD_XREC_ROUNDTRIP
360
62
  0
DICTIONARY
  5
45
330
2B
100
AcDbDictionary
280
     1
281
     1
  3
ACAD_XREC_ROUNDTRIP
360
46
  0
DICTIONARY
  5
47
330
2C
100
AcDbDictionary
280
     1
281
     1
  3
ACAD_XREC_ROUNDTRIP
360
48
  0
DICTIONARY
  5
49
330
2D
100
AcDbDictionary
280
     1
281
     1
  3
ACAD_XREC_ROUNDTRIP
360
4A
  0
DICTIONARY
  5
4B
330
2E
100
AcDbDictionary
280
     1
281
     1
  3
ACAD_XREC_ROUNDTRIP
360
4C
  0
DICTIONARY
  5
5F
330
38
100
AcDbDictionary
280
     1
281
     1
  3
ACAD_XREC_ROUNDTRIP
360
60
  0
DICTIONARY
  5
55
330
33
100
AcDbDictionary
280
     1
281
     1
  3
ACAD_XREC_ROUNDTRIP
360
56
  0
DICTIONARY
  5
5D
330
37
100
AcDbDictionary
280
     1
281
     1
  3
ACAD_XREC_ROUNDTRIP
360
5E
  0
XRECORD
  5
4E
102
{ACAD_REACTORS
330
4D
102
}
330
4D
100
AcDbXrecord
280
     1
102
RTVSPropertyOp0
 70
     1
102
RTVSPropertyOp1
 70
     1
102
RTVSPropertyOp2
 70
     1
102
RTVSPropertyOp3
 70
     1
102
RTVSPropertyOp4
 70
     1
102
RTVSPropertyOp5
 70
     1
102
RTVSPropertyOp6
 70
     1
102
RTVSPropertyOp7
 70
     1
102
RTVSPropertyOp8
 70
     1
102
RTVSPropertyOp9
 70
     1
102
RTVSPropertyOp10
 70
     1
102
RTVSPropertyOp11
 70
     1
102
RTVSPropertyOp12
 70
     1
102
RTVSPropertyOp13
 70
     1
102
RTVSPropertyOp14
 70
     1
102
RTVSPropertyOp15
 70
     1
102
RTVSPropertyOp16
 70
     1
102
RTVSPropertyOp17
 70
     1
102
RTVSPropertyOp18
 70
     1
102
RTVSPropertyOp19
 70
     1
102
RTVSPropertyOp20
 70
     1
102
RTVSPropertyOp21
 70
     1
102
RTVSPropertyOp22
 70
     1
102
RTVSPropertyOp23
 70
     1
102
RTVSPropertyOp24
 70
     1
102
RTVSPropertyOp25
 70
     1
102
RTVSPropertyOp26
 70
     1
102
RTVSPropertyOp27
 70
     1
102
RTVSPropertyOp28
 70
     1
102
RTVSPropertyOp29
 70
     1
102
RTVSPropertyOp30
 70
     1
102
RTVSPropertyOp31
 70
     1
102
RTVSPropertyOp32
 70
     1
  0
XRECORD
  5
52
102
{ACAD_REACTORS
330
51
102
}
330
51
100
AcDbXrecord
280
     1
102
RTVSPropertyOp0
 70
     1
102
RTVSPropertyOp1
 70
     1
102
RTVSPropertyOp2
 70
     1
102
RTVSPropertyOp3
 70
     1
102
RTVSPropertyOp4
 70
     1
102
RTVSPropertyOp5
 70
     1
102
RTVSPropertyOp6
 70
     1
102
RTVSPropertyOp7
 70
     1
102
RTVSPropertyOp8
 70
     1
102
RTVSPropertyOp9
 70
     1
102
RTVSPropertyOp10
 70
     1
102
RTVSPropertyOp11
 70
     1
102
RTVSPropertyOp12
 70
     1
102
RTVSPropertyOp13
 70
     1
102
RTVSPropertyOp14
 70
     1
102
RTVSPropertyOp15
 70
     1
102
RTVSPropertyOp16
 70
     1
102
RTVSPropertyOp17
 70
     1
102
RTVSPropertyOp18
 70
     1
102
RTVSPropertyOp19
 70
     1
102
RTVSPropertyOp20
 70
     1
102
RTVSPropertyOp21
 70
     1
102
RTVSPropertyOp22
 70
     1
102
RTVSPropertyOp23
 70
     1
102
RTVSPropertyOp24
 70
     1
102
RTVSPropertyOp25
 70
     1
102
RTVSPropertyOp26
 70
     1
102
RTVSPropertyOp27
 70
     1
102
RTVSPropertyOp28
 70
     1
102
RTVSPropertyOp29
 70
     1
102
RTVSPropertyOp30
 70
     1
102
RTVSPropertyOp31
 70
     1
102
RTVSPropertyOp32
 70
     1
  0
XRECORD
  5
50
102
{ACAD_REACTORS
330
4F
102
}
330
4F
100
AcDbXrecord
280
     1
102
RTVSPropertyOp0
 70
     1
102
RTVSPropertyOp1
 70
     1
102
RTVSPropertyOp2
 70
     1
102
RTVSPropertyOp3
 70
     1
102
RTVSPropertyOp4
 70
     1
102
RTVSPropertyOp5
 70
     1
102
RTVSPropertyOp6
 70
     1
102
RTVSPropertyOp7
 70
     1
102
RTVSPropertyOp8
 70
     1
102
RTVSPropertyOp9
 70
     1
102
RTVSPropertyOp10
 70
     1
102
RTVSPropertyOp11
 70
     1
102
RTVSPropertyOp12
 70
     1
102
RTVSPropertyOp13
 70
     1
102
RTVSPropertyOp14
 70
     1
102
RTVSPropertyOp15
 70
     1
102
RTVSPropertyOp16
 70
     1
102
RTVSPropertyOp17
 70
     1
102
RTVSPropertyOp18
 70
     1
102
RTVSPropertyOp19
 70
     1
102
RTVSPropertyOp20
 70
     1
102
RTVSPropertyOp21
 70
     1
102
RTVSPropertyOp22
 70
     1
102
RTVSPropertyOp23
 70
     1
102
RTVSPropertyOp24
 70
     1
102
RTVSPropertyOp25
 70
     1
102
RTVSPropertyOp26
 70
     1
102
RTVSPropertyOp27
 70
     1
102
RTVSPropertyOp28
 70
     1
102
RTVSPropertyOp29
 70
     1
102
RTVSPropertyOp30
 70
     1
102
RTVSPropertyOp31
 70
     1
102
RTVSPropertyOp32
 70
     1
  0
XRECORD
  5
54
102
{ACAD_REACTORS
330
53
102
}
330
53
100
AcDbXrecord
280
     1
102
RTVSPropertyOp0
 70
     1
102
RTVSPropertyOp1
 70
     1
102
RTVSPropertyOp2
 70
     1
102
RTVSPropertyOp3
 70
     1
102
RTVSPropertyOp4
 70
     1
102
RTVSPropertyOp5
 70
     1
102
RTVSPropertyOp6
 70
     1
102
RTVSPropertyOp7
 70
     1
102
RTVSPropertyOp8
 70
     1
102
RTVSPropertyOp9
 70
     1
102
RTVSPropertyOp10
 70
     1
102
RTVSPropertyOp11
 70
     1
102
RTVSPropertyOp12
 70
     1
102
RTVSPropertyOp13
 70
     1
102
RTVSPropertyOp14
 70
     1
102
RTVSPropertyOp15
 70
     1
102
RTVSPropertyOp16
 70
     1
102
RTVSPropertyOp17
 70
     1
102
RTVSPropertyOp18
 70
     1
102
RTVSPropertyOp19
 70
     1
102
RTVSPropertyOp20
 70
     1
102
RTVSPropertyOp21
 70
     1
102
RTVSPropertyOp22
 70
     1
102
RTVSPropertyOp23
 70
     1
102
RTVSPropertyOp24
 70
     1
102
RTVSPropertyOp25
 70
     1
102
RTVSPropertyOp26
 70
     1
102
RTVSPropertyOp27
 70
     1
102
RTVSPropertyOp28
 70
     1
102
RTVSPropertyOp29
 70
     1
102
RTVSPropertyOp30
 70
     1
102
RTVSPropertyOp31
 70
     1
102
RTVSPropertyOp32
 70
     1
  0
XRECORD
  5
5C
102
{ACAD_REACTORS
330
5B
102
}
330
5B
100
AcDbXrecord
280
     1
102
RTVSPropertyOp0
 70
     1
102
RTVSPropertyOp1
 70
     1
102
RTVSPropertyOp2
 70
     1
102
RTVSPropertyOp3
 70
     1
102
RTVSPropertyOp4
 70
     1
102
RTVSPropertyOp5
 70
     1
102
RTVSPropertyOp6
 70
     1
102
RTVSPropertyOp7
 70
     1
102
RTVSPropertyOp8
 70
     1
102
RTVSPropertyOp9
 70
     1
102
RTVSPropertyOp10
 70
     1
102
RTVSPropertyOp11
 70
     1
102
RTVSPropertyOp12
 70
     1
102
RTVSPropertyOp13
 70
     1
102
RTVSPropertyOp14
 70
     1
102
RTVSPropertyOp15
 70
     1
102
RTVSPropertyOp16
 70
     1
102
RTVSPropertyOp17
 70
     1
102
RTVSPropertyOp18
 70
     1
102
RTVSPropertyOp19
 70
     1
102
RTVSPropertyOp20
 70
     1
102
RTVSPropertyOp21
 70
     1
102
RTVSPropertyOp22
 70
     1
102
RTVSPropertyOp23
 70
     1
102
RTVSPropertyOp24
 70
     1
102
RTVSPropertyOp25
 70
     1
102
RTVSPropertyOp26
 70
     1
102
RTVSPropertyOp27
 70
     1
102
RTVSPropertyOp28
 70
     1
102
RTVSPropertyOp29
 70
     1
102
RTVSPropertyOp30
 70
     1
102
RTVSPropertyOp31
 70
     1
102
RTVSPropertyOp32
 70
     1
  0
XRECORD
  5
64
102
{ACAD_REACTORS
330
63
102
}
330
63
100
AcDbXrecord
280
     1
102
RTVSPropertyOp0
 70
     1
102
RTVSPropertyOp1
 70
     1
102
RTVSPropertyOp2
 70
     1
102
RTVSPropertyOp3
 70
     1
102
RTVSPropertyOp4
 70
     1
102
RTVSPropertyOp5
 70
     1
102
RTVSPropertyOp6
 70
     1
102
RTVSPropertyOp7
 70
     1
102
RTVSPropertyOp8
 70
     1
102
RTVSPropertyOp9
 70
     1
102
RTVSPropertyOp10
 70
     1
102
RTVSPropertyOp11
 70
     1
102
RTVSPropertyOp12
 70
     1
102
RTVSPropertyOp13
 70
     1
102
RTVSPropertyOp14
 70
     1
102
RTVSPropertyOp15
 70
     1
102
RTVSPropertyOp16
 70
     1
102
RTVSPropertyOp17
 70
     1
102
RTVSPropertyOp18
 70
     1
102
RTVSPropertyOp19
 70
     1
102
RTVSPropertyOp20
 70
     1
102
RTVSPropertyOp21
 70
     1
102
RTVSPropertyOp22
 70
     1
102
RTVSPropertyOp23
 70
     1
102
RTVSPropertyOp24
 70
     1
102
RTVSPropertyOp25
 70
     1
102
RTVSPropertyOp26
 70
     1
102
RTVSPropertyOp27
 70
     1
102
RTVSPropertyOp28
 70
     1
102
RTVSPropertyOp29
 70
     1
102
RTVSPropertyOp30
 70
     1
102
RTVSPropertyOp31
 70
     1
102
RTVSPropertyOp32
 70
     1
  0
XRECORD
  5
58
102
{ACAD_REACTORS
330
57
102
}
330
57
100
AcDbXrecord
280
     1
102
RTVSPropertyOp0
 70
     1
102
RTVSPropertyOp1
 70
     1
102
RTVSPropertyOp2
 70
     1
102
RTVSPropertyOp3
 70
     1
102
RTVSPropertyOp4
 70
     1
102
RTVSPropertyOp5
 70
     1
102
RTVSPropertyOp6
 70
     1
102
RTVSPropertyOp7
 70
     1
102
RTVSPropertyOp8
 70
     1
102
RTVSPropertyOp9
 70
     1
102
RTVSPropertyOp10
 70
     1
102
RTVSPropertyOp11
 70
     1
102
RTVSPropertyOp12
 70
     1
102
RTVSPropertyOp13
 70
     1
102
RTVSPropertyOp14
 70
     1
102
RTVSPropertyOp15
 70
     1
102
RTVSPropertyOp16
 70
     1
102
RTVSPropertyOp17
 70
     1
102
RTVSPropertyOp18
 70
     1
102
RTVSPropertyOp19
 70
     1
102
RTVSPropertyOp20
 70
     1
102
RTVSPropertyOp21
 70
     1
102
RTVSPropertyOp22
 70
     1
102
RTVSPropertyOp23
 70
     1
102
RTVSPropertyOp24
 70
     1
102
RTVSPropertyOp25
 70
     1
102
RTVSPropertyOp26
 70
     1
102
RTVSPropertyOp27
 70
     1
102
RTVSPropertyOp28
 70
     1
102
RTVSPropertyOp29
 70
     1
102
RTVSPropertyOp30
 70
     1
102
RTVSPropertyOp31
 70
     1
102
RTVSPropertyOp32
 70
     1
  0
XRECORD
  5
5A
102
{ACAD_REACTORS
330
59
102
}
330
59
100
AcDbXrecord
280
     1
102
RTVSPropertyOp0
 70
     1
102
RTVSPropertyOp1
 70
     1
102
RTVSPropertyOp2
 70
     1
102
RTVSPropertyOp3
 70
     1
102
RTVSPropertyOp4
 70
     1
102
RTVSPropertyOp5
 70
     1
102
RTVSPropertyOp6
 70
     1
102
RTVSPropertyOp7
 70
     1
102
RTVSPropertyOp8
 70
     1
102
RTVSPropertyOp9
 70
     1
102
RTVSPropertyOp10
 70
     1
102
RTVSPropertyOp11
 70
     1
102
RTVSPropertyOp12
 70
     1
102
RTVSPropertyOp13
 70
     1
102
RTVSPropertyOp14
 70
     1
102
RTVSPropertyOp15
 70
     1
102
RTVSPropertyOp16
 70
     1
102
RTVSPropertyOp17
 70
     1
102
RTVSPropertyOp18
 70
     1
102
RTVSPropertyOp19
 70
     1
102
RTVSPropertyOp20
 70
     1
102
RTVSPropertyOp21
 70
     1
102
RTVSPropertyOp22
 70
     1
102
RTVSPropertyOp23
 70
     1
102
RTVSPropertyOp24
 70
     1
102
RTVSPropertyOp25
 70
     1
102
RTVSPropertyOp26
 70
     1
102
RTVSPropertyOp27
 70
     1
102
RTVSPropertyOp28
 70
     1
102
RTVSPropertyOp29
 70
     1
102
RTVSPropertyOp30
 70
     1
102
RTVSPropertyOp31
 70
     1
102
RTVSPropertyOp32
 70
     1
  0
XRECORD
  5
62
102
{ACAD_REACTORS
330
61
102
}
330
61
100
AcDbXrecord
280
     1
102
RTVSPropertyOp0
 70
     1
102
RTVSPropertyOp1
 70
     1
102
RTVSPropertyOp2
 70
     1
102
RTVSPropertyOp3
 70
     1
102
RTVSPropertyOp4
 70
     1
102
RTVSPropertyOp5
 70
     1
102
RTVSPropertyOp6
 70
     1
102
RTVSPropertyOp7
 70
     1
102
RTVSPropertyOp8
 70
     1
102
RTVSPropertyOp9
 70
     1
102
RTVSPropertyOp10
 70
     1
102
RTVSPropertyOp11
 70
     1
102
RTVSPropertyOp12
 70
     1
102
RTVSPropertyOp13
 70
     1
102
RTVSPropertyOp14
 70
     1
102
RTVSPropertyOp15
 70
     1
102
RTVSPropertyOp16
 70
     1
102
RTVSPropertyOp17
 70
     1
102
RTVSPropertyOp18
 70
     1
102
RTVSPropertyOp19
 70
     1
102
RTVSPropertyOp20
 70
     1
102
RTVSPropertyOp21
 70
     1
102
RTVSPropertyOp22
 70
     1
102
RTVSPropertyOp23
 70
     1
102
RTVSPropertyOp24
 70
     1
102
RTVSPropertyOp25
 70
     1
102
RTVSPropertyOp26
 70
     1
102
RTVSPropertyOp27
 70
     1
102
RTVSPropertyOp28
 70
     1
102
RTVSPropertyOp29
 70
     1
102
RTVSPropertyOp30
 70
     1
102
RTVSPropertyOp31
 70
     1
102
RTVSPropertyOp32
 70
     1
  0
XRECORD
  5
46
102
{ACAD_REACTORS
330
45
102
}
330
45
100
AcDbXrecord
280
     1
102
RTVSPropertyOp0
 70
     1
102
RTVSPropertyOp1
 70
     1
102
RTVSPropertyOp2
 70
     1
102
RTVSPropertyOp3
 70
     1
102
RTVSPropertyOp4
 70
     1
102
RTVSPropertyOp5
 70
     1
102
RTVSPropertyOp6
 70
     1
102
RTVSPropertyOp7
 70
     1
102
RTVSPropertyOp8
 70
     1
102
RTVSPropertyOp9
 70
     1
102
RTVSPropertyOp10
 70
     1
102
RTVSPropertyOp11
 70
     1
102
RTVSPropertyOp12
 70
     1
102
RTVSPropertyOp13
 70
     1
102
RTVSPropertyOp14
 70
     1
102
RTVSPropertyOp15
 70
     1
102
RTVSPropertyOp16
 70
     1
102
RTVSPropertyOp17
 70
     1
102
RTVSPropertyOp18
 70
     1
102
RTVSPropertyOp19
 70
     1
102
RTVSPropertyOp20
 70
     1
102
RTVSPropertyOp21
 70
     1
102
RTVSPropertyOp22
 70
     1
102
RTVSPropertyOp23
 70
     1
102
RTVSPropertyOp24
 70
     1
102
RTVSPropertyOp25
 70
     1
102
RTVSPropertyOp26
 70
     1
102
RTVSPropertyOp27
 70
     1
102
RTVSPropertyOp28
 70
     1
102
RTVSPropertyOp29
 70
     1
102
RTVSPropertyOp30
 70
     1
102
RTVSPropertyOp31
 70
     1
102
RTVSPropertyOp32
 70
     1
  0
XRECORD
  5
48
102
{ACAD_REACTORS
330
47
102
}
330
47
100
AcDbXrecord
280
     1
102
RTVSPropertyOp0
 70
     1
102
RTVSPropertyOp1
 70
     1
102
RTVSPropertyOp2
 70
     1
102
RTVSPropertyOp3
 70
     1
102
RTVSPropertyOp4
 70
     1
102
RTVSPropertyOp5
 70
     1
102
RTVSPropertyOp6
 70
     1
102
RTVSPropertyOp7
 70
     1
102
RTVSPropertyOp8
 70
     1
102
RTVSPropertyOp9
 70
     1
102
RTVSPropertyOp10
 70
     1
102
RTVSPropertyOp11
 70
     1
102
RTVSPropertyOp12
 70
     1
102
RTVSPropertyOp13
 70
     1
102
RTVSPropertyOp14
 70
     1
102
RTVSPropertyOp15
 70
     1
102
RTVSPropertyOp16
 70
     1
102
RTVSPropertyOp17
 70
     1
102
RTVSPropertyOp18
 70
     1
102
RTVSPropertyOp19
 70
     1
102
RTVSPropertyOp20
 70
     1
102
RTVSPropertyOp21
 70
     1
102
RTVSPropertyOp22
 70
     1
102
RTVSPropertyOp23
 70
     1
102
RTVSPropertyOp24
 70
     1
102
RTVSPropertyOp25
 70
     1
102
RTVSPropertyOp26
 70
     1
102
RTVSPropertyOp27
 70
     1
102
RTVSPropertyOp28
 70
     1
102
RTVSPropertyOp29
 70
     1
102
RTVSPropertyOp30
 70
     1
102
RTVSPropertyOp31
 70
     1
102
RTVSPropertyOp32
 70
     1
  0
XRECORD
  5
4A
102
{ACAD_REACTORS
330
49
102
}
330
49
100
AcDbXrecord
280
     1
102
RTVSPropertyOp0
 70
     1
102
RTVSPropertyOp1
 70
     1
102
RTVSPropertyOp2
 70
     1
102
RTVSPropertyOp3
 70
     1
102
RTVSPropertyOp4
 70
     1
102
RTVSPropertyOp5
 70
     1
102
RTVSPropertyOp6
 70
     1
102
RTVSPropertyOp7
 70
     1
102
RTVSPropertyOp8
 70
     1
102
RTVSPropertyOp9
 70
     1
102
RTVSPropertyOp10
 70
     1
102
RTVSPropertyOp11
 70
     1
102
RTVSPropertyOp12
 70
     1
102
RTVSPropertyOp13
 70
     1
102
RTVSPropertyOp14
 70
     1
102
RTVSPropertyOp15
 70
     1
102
RTVSPropertyOp16
 70
     1
102
RTVSPropertyOp17
 70
     1
102
RTVSPropertyOp18
 70
     1
102
RTVSPropertyOp19
 70
     1
102
RTVSPropertyOp20
 70
     1
102
RTVSPropertyOp21
 70
     1
102
RTVSPropertyOp22
 70
     1
102
RTVSPropertyOp23
 70
     1
102
RTVSPropertyOp24
 70
     1
102
RTVSPropertyOp25
 70
     1
102
RTVSPropertyOp26
 70
     1
102
RTVSPropertyOp27
 70
     1
102
RTVSPropertyOp28
 70
     1
102
RTVSPropertyOp29
 70
     1
102
RTVSPropertyOp30
 70
     1
102
RTVSPropertyOp31
 70
     1
102
RTVSPropertyOp32
 70
     1
  0
XRECORD
  5
4C
102
{ACAD_REACTORS
330
4B
102
}
330
4B
100
AcDbXrecord
280
     1
102
RTVSPropertyOp0
 70
     1
102
RTVSPropertyOp1
 70
     1
102
RTVSPropertyOp2
 70
     1
102
RTVSPropertyOp3
 70
     1
102
RTVSPropertyOp4
 70
     1
102
RTVSPropertyOp5
 70
     1
102
RTVSPropertyOp6
 70
     1
102
RTVSPropertyOp7
 70
     1
102
RTVSPropertyOp8
 70
     1
102
RTVSPropertyOp9
 70
     1
102
RTVSPropertyOp10
 70
     1
102
RTVSPropertyOp11
 70
     1
102
RTVSPropertyOp12
 70
     1
102
RTVSPropertyOp13
 70
     1
102
RTVSPropertyOp14
 70
     1
102
RTVSPropertyOp15
 70
     1
102
RTVSPropertyOp16
 70
     1
102
RTVSPropertyOp17
 70
     1
102
RTVSPropertyOp18
 70
     1
102
RTVSPropertyOp19
 70
     1
102
RTVSPropertyOp20
 70
     1
102
RTVSPropertyOp21
 70
     1
102
RTVSPropertyOp22
 70
     1
102
RTVSPropertyOp23
 70
     1
102
RTVSPropertyOp24
 70
     1
102
RTVSPropertyOp25
 70
     1
102
RTVSPropertyOp26
 70
     1
102
RTVSPropertyOp27
 70
     1
102
RTVSPropertyOp28
 70
     1
102
RTVSPropertyOp29
 70
     1
102
RTVSPropertyOp30
 70
     1
102
RTVSPropertyOp31
 70
     1
102
RTVSPropertyOp32
 70
     1
  0
XRECORD
  5
60
102
{ACAD_REACTORS
330
5F
102
}
330
5F
100
AcDbXrecord
280
     1
102
RTVSPropertyOp0
 70
     1
102
RTVSPropertyOp1
 70
     1
102
RTVSPropertyOp2
 70
     1
102
RTVSPropertyOp3
 70
     1
102
RTVSPropertyOp4
 70
     1
102
RTVSPropertyOp5
 70
     1
102
RTVSPropertyOp6
 70
     1
102
RTVSPropertyOp7
 70
     1
102
RTVSPropertyOp8
 70
     1
102
RTVSPropertyOp9
 70
     1
102
RTVSPropertyOp10
 70
     1
102
RTVSPropertyOp11
 70
     1
102
RTVSPropertyOp12
 70
     1
102
RTVSPropertyOp13
 70
     1
102
RTVSPropertyOp14
 70
     1
102
RTVSPropertyOp15
 70
     1
102
RTVSPropertyOp16
 70
     1
102
RTVSPropertyOp17
 70
     1
102
RTVSPropertyOp18
 70
     1
102
RTVSPropertyOp19
 70
     1
102
RTVSPropertyOp20
 70
     1
102
RTVSPropertyOp21
 70
     1
102
RTVSPropertyOp22
 70
     1
102
RTVSPropertyOp23
 70
     1
102
RTVSPropertyOp24
 70
     1
102
RTVSPropertyOp25
 70
     1
102
RTVSPropertyOp26
 70
     1
102
RTVSPropertyOp27
 70
     1
102
RTVSPropertyOp28
 70
     1
102
RTVSPropertyOp29
 70
     1
102
RTVSPropertyOp30
 70
     1
102
RTVSPropertyOp31
 70
     1
102
RTVSPropertyOp32
 70
     1
  0
XRECORD
  5
56
102
{ACAD_REACTORS
330
55
102
}
330
55
100
AcDbXrecord
280
     1
102
RTVSPropertyOp0
 70
     1
102
RTVSPropertyOp1
 70
     1
102
RTVSPropertyOp2
 70
     1
102
RTVSPropertyOp3
 70
     1
102
RTVSPropertyOp4
 70
     1
102
RTVSPropertyOp5
 70
     1
102
RTVSPropertyOp6
 70
     1
102
RTVSPropertyOp7
 70
     1
102
RTVSPropertyOp8
 70
     1
102
RTVSPropertyOp9
 70
     1
102
RTVSPropertyOp10
 70
     1
102
RTVSPropertyOp11
 70
     1
102
RTVSPropertyOp12
 70
     1
102
RTVSPropertyOp13
 70
     1
102
RTVSPropertyOp14
 70
     1
102
RTVSPropertyOp15
 70
     1
102
RTVSPropertyOp16
 70
     1
102
RTVSPropertyOp17
 70
     1
102
RTVSPropertyOp18
 70
     1
102
RTVSPropertyOp19
 70
     1
102
RTVSPropertyOp20
 70
     1
102
RTVSPropertyOp21
 70
     1
102
RTVSPropertyOp22
 70
     1
102
RTVSPropertyOp23
 70
     1
102
RTVSPropertyOp24
 70
     1
102
RTVSPropertyOp25
 70
     1
102
RTVSPropertyOp26
 70
     1
102
RTVSPropertyOp27
 70
     1
102
RTVSPropertyOp28
 70
     1
102
RTVSPropertyOp29
 70
     1
102
RTVSPropertyOp30
 70
     1
102
RTVSPropertyOp31
 70
     1
102
RTVSPropertyOp32
 70
     1
  0
XRECORD
  5
5E
102
{ACAD_REACTORS
330
5D
102
}
330
5D
100
AcDbXrecord
280
     1
102
RTVSPropertyOp0
 70
     1
102
RTVSPropertyOp1
 70
     1
102
RTVSPropertyOp2
 70
     1
102
RTVSPropertyOp3
 70
     1
102
RTVSPropertyOp4
 70
     1
102
RTVSPropertyOp5
 70
     1
102
RTVSPropertyOp6
 70
     1
102
RTVSPropertyOp7
 70
     1
102
RTVSPropertyOp8
 70
     1
102
RTVSPropertyOp9
 70
     1
102
RTVSPropertyOp10
 70
     1
102
RTVSPropertyOp11
 70
     1
102
RTVSPropertyOp12
 70
     1
102
RTVSPropertyOp13
 70
     1
102
RTVSPropertyOp14
 70
     1
102
RTVSPropertyOp15
 70
     1
102
RTVSPropertyOp16
 70
     1
102
RTVSPropertyOp17
 70
     1
102
RTVSPropertyOp18
 70
     1
102
RTVSPropertyOp19
 70
     1
102
RTVSPropertyOp20
 70
     1
102
RTVSPropertyOp21
 70
     1
102
RTVSPropertyOp22
 70
     1
102
RTVSPropertyOp23
 70
     1
102
RTVSPropertyOp24
 70
     1
102
RTVSPropertyOp25
 70
     1
102
RTVSPropertyOp26
 70
     1
102
RTVSPropertyOp27
 70
     1
102
RTVSPropertyOp28
 70
     1
102
RTVSPropertyOp29
 70
     1
102
RTVSPropertyOp30
 70
     1
102
RTVSPropertyOp31
 70
     1
102
RTVSPropertyOp32
 70
     1
  0
ENDSEC
  0
EOF
